<?xml version="1.0" standalone="no"?>
 <!DOCTYPE svg PUBLIC "-//W3C//DTD SVG 1.1//EN" 
 "http://www.w3.org/Graphics/SVG/1.1/DTD/svg11.dtd"> 
<svg
  xmlns:svg="http://www.w3.org/2000/svg"
  xmlns="http://www.w3.org/2000/svg"
  xmlns:xlink="http://www.w3.org/1999/xlink"
  version="1.1"
  width="29.700220cm" height="21.000720cm" viewBox="0 0 116930 82680">
<title>SVG Picture created as Piezo_DevBoard_Print.svg date 2023/07/31 14:15:22 </title>
  <desc>Picture generated by Eeschema-SVG </desc>
<g style="fill:#000000; fill-opacity:1.000000;stroke:#000000; stroke-opacity:1.000000;
stroke-linecap:round; stroke-linejoin:round;"
 transform="translate(0 0) scale(1 1)">
</g>
<g style="fill:#000000; fill-opacity:0.0; 
stroke:#000000; stroke-width:60.000000; stroke-opacity:1; 
stroke-linecap:round; stroke-linejoin:round;">
</g>
<g style="fill:#FFFFFF; fill-opacity:0.0; 
stroke:#FFFFFF; stroke-width:60.000000; stroke-opacity:1; 
stroke-linecap:round; stroke-linejoin:round;">
</g>
<g style="fill:#FFFFFF; fill-opacity:1.0; 
stroke:#FFFFFF; stroke-width:0.039370; stroke-opacity:1; 
stroke-linecap:round; stroke-linejoin:round;">
<rect x="49000.000000" y="21000.000000" width="5000.000000" height="4500.000000" rx="0.000000" />
</g>
<g style="fill:#840000; fill-opacity:1.0; 
stroke:#840000; stroke-width:0.039370; stroke-opacity:1; 
stroke-linecap:round; stroke-linejoin:round;">
</g>
<g style="fill:#840000; fill-opacity:0.0; 
stroke:#840000; stroke-width:60.000000; stroke-opacity:1; 
stroke-linecap:round; stroke-linejoin:round;">
<rect x="49000.000000" y="21000.000000" width="5000.000000" height="4500.000000" rx="0.000000" />
</g>
<g style="fill:#006464; fill-opacity:0.0; 
stroke:#006464; stroke-width:60.000000; stroke-opacity:1; 
stroke-linecap:round; stroke-linejoin:round;">
<text x="51162.204724" y="20567.322835"
textLength="4321.889764" font-size="666.653543" lengthAdjust="spacingAndGlyphs"
text-anchor="middle" opacity="0">comparator</text>
<g class="stroked-text"><desc>comparator</desc>
<path d="M49364 20519
L49316 20543
L49221 20543
L49174 20519
L49150 20495
L49126 20448
L49126 20305
L49150 20257
L49174 20233
L49221 20210
L49316 20210
L49364 20233
" />
<path d="M49650 20543
L49602 20519
L49578 20495
L49555 20448
L49555 20305
L49578 20257
L49602 20233
L49650 20210
L49721 20210
L49769 20233
L49793 20257
L49816 20305
L49816 20448
L49793 20495
L49769 20519
L49721 20543
L49650 20543
" />
<path d="M50031 20543
L50031 20210
" />
<path d="M50031 20257
L50055 20233
L50102 20210
L50174 20210
L50221 20233
L50245 20281
L50245 20543
" />
<path d="M50245 20281
L50269 20233
L50316 20210
L50388 20210
L50435 20233
L50459 20281
L50459 20543
" />
<path d="M50697 20210
L50697 20710
" />
<path d="M50697 20233
L50745 20210
L50840 20210
L50888 20233
L50912 20257
L50935 20305
L50935 20448
L50912 20495
L50888 20519
L50840 20543
L50745 20543
L50697 20519
" />
<path d="M51364 20543
L51364 20281
L51340 20233
L51293 20210
L51197 20210
L51150 20233
" />
<path d="M51364 20519
L51316 20543
L51197 20543
L51150 20519
L51126 20472
L51126 20424
L51150 20376
L51197 20353
L51316 20353
L51364 20329
" />
<path d="M51602 20543
L51602 20210
" />
<path d="M51602 20305
L51626 20257
L51650 20233
L51697 20210
L51745 20210
" />
<path d="M52126 20543
L52126 20281
L52102 20233
L52055 20210
L51959 20210
L51912 20233
" />
<path d="M52126 20519
L52078 20543
L51959 20543
L51912 20519
L51888 20472
L51888 20424
L51912 20376
L51959 20353
L52078 20353
L52126 20329
" />
<path d="M52293 20210
L52483 20210
" />
<path d="M52364 20043
L52364 20472
L52388 20519
L52435 20543
L52483 20543
" />
<path d="M52721 20543
L52674 20519
L52650 20495
L52626 20448
L52626 20305
L52650 20257
L52674 20233
L52721 20210
L52793 20210
L52840 20233
L52864 20257
L52888 20305
L52888 20448
L52864 20495
L52840 20519
L52793 20543
L52721 20543
" />
<path d="M53102 20543
L53102 20210
" />
<path d="M53102 20305
L53126 20257
L53150 20233
L53197 20210
L53245 20210
" />
</g></g>
<g style="fill:#725600; fill-opacity:0.0; 
stroke:#725600; stroke-width:60.000000; stroke-opacity:1; 
stroke-linecap:round; stroke-linejoin:round;">
<text x="53388.385827" y="26382.637795"
textLength="8774.291339" font-size="666.653543" lengthAdjust="spacingAndGlyphs"
text-anchor="middle" opacity="0">File: untitled.kicad_sch</text>
<g class="stroked-text"><desc>File: untitled.kicad_sch</desc>
<path d="M49316 26096
L49150 26096
" />
<path d="M49150 26358
L49150 25858
L49388 25858
" />
<path d="M49578 26358
L49578 26025
" />
<path d="M49578 25858
L49555 25882
L49578 25906
L49602 25882
L49578 25858
L49578 25906
" />
<path d="M49888 26358
L49840 26335
L49816 26287
L49816 25858
" />
<path d="M50269 26335
L50221 26358
L50126 26358
L50078 26335
L50055 26287
L50055 26096
L50078 26049
L50126 26025
L50221 26025
L50269 26049
L50293 26096
L50293 26144
L50055 26192
" />
<path d="M50507 26311
L50531 26335
L50507 26358
L50483 26335
L50507 26311
L50507 26358
" />
<path d="M50507 26049
L50531 26073
L50507 26096
L50483 26073
L50507 26049
L50507 26096
" />
<path d="M51340 26025
L51340 26358
" />
<path d="M51126 26025
L51126 26287
L51150 26335
L51197 26358
L51269 26358
L51316 26335
L51340 26311
" />
<path d="M51578 26025
L51578 26358
" />
<path d="M51578 26073
L51602 26049
L51650 26025
L51721 26025
L51769 26049
L51793 26096
L51793 26358
" />
<path d="M51959 26025
L52150 26025
" />
<path d="M52031 25858
L52031 26287
L52055 26335
L52102 26358
L52150 26358
" />
<path d="M52316 26358
L52316 26025
" />
<path d="M52316 25858
L52293 25882
L52316 25906
L52340 25882
L52316 25858
L52316 25906
" />
<path d="M52483 26025
L52674 26025
" />
<path d="M52555 25858
L52555 26287
L52578 26335
L52626 26358
L52674 26358
" />
<path d="M52912 26358
L52864 26335
L52840 26287
L52840 25858
" />
<path d="M53293 26335
L53245 26358
L53150 26358
L53102 26335
L53078 26287
L53078 26096
L53102 26049
L53150 26025
L53245 26025
L53293 26049
L53316 26096
L53316 26144
L53078 26192
" />
<path d="M53745 26358
L53745 25858
" />
<path d="M53745 26335
L53697 26358
L53602 26358
L53555 26335
L53531 26311
L53507 26263
L53507 26120
L53531 26073
L53555 26049
L53602 26025
L53697 26025
L53745 26049
" />
<path d="M53983 26311
L54007 26335
L53983 26358
L53959 26335
L53983 26311
L53983 26358
" />
<path d="M54221 26358
L54221 25858
" />
<path d="M54269 26168
L54412 26358
" />
<path d="M54412 26025
L54221 26215
" />
<path d="M54626 26358
L54626 26025
" />
<path d="M54626 25858
L54602 25882
L54626 25906
L54650 25882
L54626 25858
L54626 25906
" />
<path d="M55078 26335
L55031 26358
L54935 26358
L54888 26335
L54864 26311
L54840 26263
L54840 26120
L54864 26073
L54888 26049
L54935 26025
L55031 26025
L55078 26049
" />
<path d="M55507 26358
L55507 26096
L55483 26049
L55435 26025
L55340 26025
L55293 26049
" />
<path d="M55507 26335
L55459 26358
L55340 26358
L55293 26335
L55269 26287
L55269 26239
L55293 26192
L55340 26168
L55459 26168
L55507 26144
" />
<path d="M55959 26358
L55959 25858
" />
<path d="M55959 26335
L55912 26358
L55816 26358
L55769 26335
L55745 26311
L55721 26263
L55721 26120
L55745 26073
L55769 26049
L55816 26025
L55912 26025
L55959 26049
" />
<path d="M56078 26406
L56459 26406
" />
<path d="M56555 26335
L56602 26358
L56697 26358
L56745 26335
L56769 26287
L56769 26263
L56745 26215
L56697 26192
L56626 26192
L56578 26168
L56555 26120
L56555 26096
L56578 26049
L56626 26025
L56697 26025
L56745 26049
" />
<path d="M57197 26335
L57150 26358
L57055 26358
L57007 26335
L56983 26311
L56959 26263
L56959 26120
L56983 26073
L57007 26049
L57055 26025
L57150 26025
L57197 26049
" />
<path d="M57412 26358
L57412 25858
" />
<path d="M57626 26358
L57626 26096
L57602 26049
L57555 26025
L57483 26025
L57435 26049
L57412 26073
" />
</g></g> 
</svg>
