<?xml version='1.0' encoding='UTF-8' standalone='no'?>
<svg xmlns="http://www.w3.org/2000/svg" height="314pt" width="418pt" xmlns:xlink="http://www.w3.org/1999/xlink" viewBox="0 0 418 314">
 <title>Figure 1</title>
 <desc>
Creator: GL2PS 1.4.2, (C) 1999-2020 C. Geuzaine
For: Octave
CreationDate: Sat Aug 12 17:21:12 2023
</desc>
 <defs/>
 <polygon points="0,0 418,0 418,314 0,314" fill="#ffffff"/>
 <g>
  <polygon shape-rendering="crispEdges" points="0,314 418,314 418,0 0,0" fill="#ffffff"/>
  <clipPath id="cp00418314">
   <polygon points="0,314 418,314 418,0 0,0"/>
  </clipPath>
  <g clip-path="url(#cp00418314)">
   <polygon shape-rendering="crispEdges" points="54.4343,279.499 378.946,279.499 378.946,23.5533 54.4343,23.5533" fill="#ffffff"/>
   <polyline stroke-width="0.5" points="54.4343,279.499 54.4343,276.255" stroke-linejoin="miter" stroke="#262626" fill="none" stroke-linecap="butt"/>
   <polyline stroke-width="0.5" points="54.4343,23.5533 54.4343,26.7977" stroke-linejoin="miter" stroke="#262626" fill="none" stroke-linecap="butt"/>
   <polyline stroke-width="0.5" points="119.337,279.499 119.337,276.255" stroke-linejoin="miter" stroke="#262626" fill="none" stroke-linecap="butt"/>
   <polyline stroke-width="0.5" points="119.337,23.5533 119.337,26.7977" stroke-linejoin="miter" stroke="#262626" fill="none" stroke-linecap="butt"/>
   <polyline stroke-width="0.5" points="184.239,279.499 184.239,276.255" stroke-linejoin="miter" stroke="#262626" fill="none" stroke-linecap="butt"/>
   <polyline stroke-width="0.5" points="184.239,23.5533 184.239,26.7977" stroke-linejoin="miter" stroke="#262626" fill="none" stroke-linecap="butt"/>
   <polyline stroke-width="0.5" points="249.142,279.499 249.142,276.255" stroke-linejoin="miter" stroke="#262626" fill="none" stroke-linecap="butt"/>
   <polyline stroke-width="0.5" points="249.142,23.5533 249.142,26.7977" stroke-linejoin="miter" stroke="#262626" fill="none" stroke-linecap="butt"/>
   <polyline stroke-width="0.5" points="314.044,279.499 314.044,276.255" stroke-linejoin="miter" stroke="#262626" fill="none" stroke-linecap="butt"/>
   <polyline stroke-width="0.5" points="314.044,23.5533 314.044,26.7977" stroke-linejoin="miter" stroke="#262626" fill="none" stroke-linecap="butt"/>
   <polyline stroke-width="0.5" points="378.946,279.499 378.946,276.255" stroke-linejoin="miter" stroke="#262626" fill="none" stroke-linecap="butt"/>
   <polyline stroke-width="0.5" points="378.946,23.5533 378.946,26.7977" stroke-linejoin="miter" stroke="#262626" fill="none" stroke-linecap="butt"/>
   <g transform="translate(51.4343,294.998) rotate(-0,3,-8)" xml:space="preserve" font-style="normal" font-size="10" font-family="FreeSans" font-weight="normal">
    <text y="-0" fill="rgb(38,38,38)" x="0 ">0</text>
   </g>
   <g transform="translate(101.337,294.998) rotate(-0,18,-8)" xml:space="preserve" font-style="normal" font-size="10" font-family="FreeSans" font-weight="normal">
    <text y="-0" fill="rgb(38,38,38)" x="0 6 12 18 24 30 ">500000</text>
   </g>
   <g transform="translate(169.739,294.998) rotate(-0,14.5,-8)" xml:space="preserve" font-style="normal" font-size="10" font-family="FreeSans" font-weight="normal">
    <text y="-0" fill="rgb(38,38,38)" x="0 6 11 17 23 ">1e+06</text>
   </g>
   <g transform="translate(230.142,294.998) rotate(-0,19,-8)" xml:space="preserve" font-style="normal" font-size="10" font-family="FreeSans" font-weight="normal">
    <text y="-0" fill="rgb(38,38,38)" x="0 6 9 15 20 26 32 ">1.5e+06</text>
   </g>
   <g transform="translate(299.544,294.998) rotate(-0,14.5,-8)" xml:space="preserve" font-style="normal" font-size="10" font-family="FreeSans" font-weight="normal">
    <text y="-0" fill="rgb(38,38,38)" x="0 6 11 17 23 ">2e+06</text>
   </g>
   <g transform="translate(359.946,294.998) rotate(-0,19,-8)" xml:space="preserve" font-style="normal" font-size="10" font-family="FreeSans" font-weight="normal">
    <text y="-0" fill="rgb(38,38,38)" x="0 6 9 15 20 26 32 ">2.5e+06</text>
   </g>
   <polyline stroke-width="0.5" points="54.4343,279.499 57.6745,279.499" stroke-linejoin="miter" stroke="#262626" fill="none" stroke-linecap="butt"/>
   <polyline stroke-width="0.5" points="378.946,279.499 375.706,279.499" stroke-linejoin="miter" stroke="#262626" fill="none" stroke-linecap="butt"/>
   <polyline stroke-width="0.5" points="54.4343,242.935 57.6745,242.935" stroke-linejoin="miter" stroke="#262626" fill="none" stroke-linecap="butt"/>
   <polyline stroke-width="0.5" points="378.946,242.935 375.706,242.935" stroke-linejoin="miter" stroke="#262626" fill="none" stroke-linecap="butt"/>
   <polyline stroke-width="0.5" points="54.4343,206.372 57.6745,206.372" stroke-linejoin="miter" stroke="#262626" fill="none" stroke-linecap="butt"/>
   <polyline stroke-width="0.5" points="378.946,206.372 375.706,206.372" stroke-linejoin="miter" stroke="#262626" fill="none" stroke-linecap="butt"/>
   <polyline stroke-width="0.5" points="54.4343,169.808 57.6745,169.808" stroke-linejoin="miter" stroke="#262626" fill="none" stroke-linecap="butt"/>
   <polyline stroke-width="0.5" points="378.946,169.808 375.706,169.808" stroke-linejoin="miter" stroke="#262626" fill="none" stroke-linecap="butt"/>
   <polyline stroke-width="0.5" points="54.4343,133.244 57.6745,133.244" stroke-linejoin="miter" stroke="#262626" fill="none" stroke-linecap="butt"/>
   <polyline stroke-width="0.5" points="378.946,133.244 375.706,133.244" stroke-linejoin="miter" stroke="#262626" fill="none" stroke-linecap="butt"/>
   <polyline stroke-width="0.5" points="54.4343,96.6807 57.6745,96.6807" stroke-linejoin="miter" stroke="#262626" fill="none" stroke-linecap="butt"/>
   <polyline stroke-width="0.5" points="378.946,96.6807 375.706,96.6807" stroke-linejoin="miter" stroke="#262626" fill="none" stroke-linecap="butt"/>
   <polyline stroke-width="0.5" points="54.4343,60.117 57.6745,60.117" stroke-linejoin="miter" stroke="#262626" fill="none" stroke-linecap="butt"/>
   <polyline stroke-width="0.5" points="378.946,60.117 375.706,60.117" stroke-linejoin="miter" stroke="#262626" fill="none" stroke-linecap="butt"/>
   <polyline stroke-width="0.5" points="54.4343,23.5533 57.6745,23.5533" stroke-linejoin="miter" stroke="#262626" fill="none" stroke-linecap="butt"/>
   <polyline stroke-width="0.5" points="378.946,23.5533 375.706,23.5533" stroke-linejoin="miter" stroke="#262626" fill="none" stroke-linecap="butt"/>
   <g transform="translate(43.4418,283.499) rotate(-0,6,-4)" xml:space="preserve" font-style="normal" font-size="10" font-family="FreeSans" font-weight="normal">
    <text y="-0" fill="rgb(38,38,38)" x="0 ">0</text>
   </g>
   <g transform="translate(34.4418,246.935) rotate(-0,15,-4)" xml:space="preserve" font-style="normal" font-size="10" font-family="FreeSans" font-weight="normal">
    <text y="-0" fill="rgb(38,38,38)" x="0 6 9 ">0.1</text>
   </g>
   <g transform="translate(34.4418,210.372) rotate(-0,15,-4)" xml:space="preserve" font-style="normal" font-size="10" font-family="FreeSans" font-weight="normal">
    <text y="-0" fill="rgb(38,38,38)" x="0 6 9 ">0.2</text>
   </g>
   <g transform="translate(34.4418,173.808) rotate(-0,15,-4)" xml:space="preserve" font-style="normal" font-size="10" font-family="FreeSans" font-weight="normal">
    <text y="-0" fill="rgb(38,38,38)" x="0 6 9 ">0.3</text>
   </g>
   <g transform="translate(34.4418,137.244) rotate(-0,15,-4)" xml:space="preserve" font-style="normal" font-size="10" font-family="FreeSans" font-weight="normal">
    <text y="-0" fill="rgb(38,38,38)" x="0 6 9 ">0.4</text>
   </g>
   <g transform="translate(34.4418,100.681) rotate(-0,15,-4)" xml:space="preserve" font-style="normal" font-size="10" font-family="FreeSans" font-weight="normal">
    <text y="-0" fill="rgb(38,38,38)" x="0 6 9 ">0.5</text>
   </g>
   <g transform="translate(34.4418,64.117) rotate(-0,15,-4)" xml:space="preserve" font-style="normal" font-size="10" font-family="FreeSans" font-weight="normal">
    <text y="-0" fill="rgb(38,38,38)" x="0 6 9 ">0.6</text>
   </g>
   <g transform="translate(34.4418,27.5533) rotate(-0,15,-4)" xml:space="preserve" font-style="normal" font-size="10" font-family="FreeSans" font-weight="normal">
    <text y="-0" fill="rgb(38,38,38)" x="0 6 9 ">0.7</text>
   </g>
   <polyline stroke-width="0.5" stroke-dasharray="16,0" points="54.4343,279.499 378.946,279.499" stroke-linejoin="miter" stroke="#262626" fill="none" stroke-linecap="square"/>
   <polyline stroke-width="0.5" stroke-dasharray="16,0" points="54.4343,23.5533 378.946,23.5533" stroke-linejoin="miter" stroke="#262626" fill="none" stroke-linecap="square"/>
   <polyline stroke-width="0.5" stroke-dasharray="16,0" points="54.4343,279.499 54.4343,23.5533" stroke-linejoin="miter" stroke="#262626" fill="none" stroke-linecap="square"/>
   <polyline stroke-width="0.5" stroke-dasharray="16,0" points="378.946,279.499 378.946,23.5533" stroke-linejoin="miter" stroke="#262626" fill="none" stroke-linecap="square"/>
   <g transform="translate(203.19,311.998) rotate(-0,13.5,-12)" xml:space="preserve" font-style="normal" font-size="11" font-family="FreeSans" font-weight="normal">
    <text y="-3" fill="rgb(38,38,38)" x="0 3 6 10 18 23 ">f (Hz)</text>
   </g>
   <g transform="translate(17.4418,151.526) rotate(-90,12,0)" xml:space="preserve" font-style="normal" font-size="11" font-family="FreeSans" font-weight="normal">
    <text y="-3" fill="rgb(38,38,38)" x="0 3 10 14 17 21 ">|V(f)|</text>
   </g>
   <g transform="translate(129.19,13.5533) rotate(-0,87.5,0)" xml:space="preserve" font-style="normal" font-size="11" font-family="FreeSans" font-weight="bold">
    <text y="-3" fill="rgb(0,0,0)" x="0 7 10 17 24 27 33 37 43 46 53 59 66 69 75 85 92 95 98 102 109 116 122 125 131 138 144 150 154 158 165 ">Single-sided amplitude spectrum</text>
   </g>
   <polyline stroke-width="0.5" points="65.8562,279.353 65.8725,279.353 65.8887,279.348 65.9049,279.342 65.9212,279.35 65.9374,279.348 65.9536,279.346 65.9698,279.343 65.9861,279.353 66.0023,279.346 66.0185,279.35 66.0347,279.347 66.0509,279.348 66.0672,279.347 66.0834,279.344 66.0996,279.349 66.1158,279.35 66.1321,279.343 66.1483,279.343 66.1645,279.346 66.1807,279.351 66.197,279.348 66.2132,279.34 66.2294,279.351 66.2457,279.347 66.2619,279.346 66.2781,279.34 66.2943,279.343 66.3105,279.345 66.3268,279.34 66.343,279.349 66.3592,279.351 66.3754,279.341" stroke-linejoin="round" stroke="#0071bc" fill="none" stroke-linecap="butt"/>
   <polyline stroke-width="0.5" points="57.5494,279.383 57.5656,279.372 57.5818,279.37 57.5981,279.375 57.6143,279.366 57.6305,279.373 57.6467,279.362 57.6629,279.375 57.6792,279.367 57.6954,279.383 57.7116,279.371 57.7278,279.378 57.7441,279.372 57.7603,279.362 57.7765,279.366 57.7927,279.369 57.809,279.377 57.8252,279.37 57.8414,279.373 57.8576,279.371 57.8739,279.367 57.8901,279.37 57.9063,279.38 57.9225,279.369 57.9388,279.377 57.955,279.376 57.9712,279.38 57.9874,279.381 58.0036,279.375 58.0199,279.381 58.0361,279.373 58.0523,279.373 58.0686,279.378" stroke-linejoin="round" stroke="#0071bc" fill="none" stroke-linecap="butt"/>
   <polyline stroke-width="0.5" points="60.6645,279.366 60.6807,279.365 60.6969,279.369 60.7131,279.367 60.7293,279.371 60.7456,279.376 60.7618,279.365 60.778,279.372 60.7943,279.376 60.8105,279.36 60.8267,279.373 60.8429,279.367 60.8591,279.372 60.8754,279.371 60.8916,279.37 60.9078,279.367 60.924,279.363 60.9403,279.367 60.9565,279.365 60.9727,279.372 60.989,279.366 61.0052,279.364 61.0214,279.365 61.0376,279.368 61.0538,279.365 61.0701,279.37 61.0863,279.375 61.1025,279.368 61.1187,279.364 61.135,279.363 61.1512,279.373 61.1674,279.366 61.1836,279.366" stroke-linejoin="round" stroke="#0071bc" fill="none" stroke-linecap="butt"/>
   <polyline stroke-width="0.5" points="74.1631,279.209 74.1794,279.214 74.1956,279.217 74.2118,279.214 74.228,279.214 74.2443,279.213 74.2605,279.208 74.2767,279.204 74.2929,279.201 74.3092,279.213 74.3254,279.208 74.3416,279.213 74.3578,279.217 74.3741,279.202 74.3903,279.203 74.4065,279.202 74.4227,279.206 74.4389,279.204 74.4552,279.205 74.4714,279.204 74.4876,279.205 74.5039,279.204 74.5201,279.2 74.5363,279.194 74.5525,279.198 74.5688,279.201 74.585,279.189 74.6012,279.198 74.6174,279.197 74.6337,279.192 74.6499,279.197 74.6661,279.193 74.6823,279.199" stroke-linejoin="round" stroke="#0071bc" fill="none" stroke-linecap="butt"/>
   <polyline stroke-width="0.5" points="58.5877,279.372 58.604,279.367 58.6202,279.378 58.6364,279.379 58.6526,279.371 58.6689,279.378 58.6851,279.37 58.7013,279.375 58.7175,279.369 58.7337,279.365 58.75,279.382 58.7662,279.367 58.7824,279.375 58.7987,279.378 58.8149,279.374 58.8311,279.381 58.8473,279.365 58.8635,279.37 58.8798,279.367 58.896,279.374 58.9122,279.374 58.9285,279.377 58.9447,279.378 58.9609,279.379 58.9771,279.367 58.9933,279.369 59.0096,279.378 59.0258,279.375 59.042,279.376 59.0582,279.382 59.0745,279.368 59.0907,279.37 59.1069,279.374" stroke-linejoin="round" stroke="#0071bc" fill="none" stroke-linecap="butt"/>
   <polyline stroke-width="0.5" points="59.6261,279.378 59.6423,279.374 59.6585,279.374 59.6748,279.37 59.691,279.367 59.7072,279.373 59.7234,279.369 59.7397,279.37 59.7559,279.368 59.7721,279.368 59.7883,279.366 59.8046,279.374 59.8208,279.366 59.837,279.374 59.8532,279.367 59.8695,279.368 59.8857,279.369 59.9019,279.361 59.9181,279.373 59.9344,279.368 59.9506,279.372 59.9668,279.362 59.983,279.365 59.9993,279.375 60.0155,279.37 60.0317,279.369 60.0479,279.367 60.0641,279.37 60.0804,279.37 60.0966,279.375 60.1128,279.374 60.129,279.374 60.1453,279.367" stroke-linejoin="round" stroke="#0071bc" fill="none" stroke-linecap="butt"/>
   <polyline stroke-width="0.5" points="56.511,279.376 56.5272,279.385 56.5435,279.382 56.5597,279.379 56.5759,279.376 56.5921,279.385 56.6084,279.383 56.6246,279.372 56.6408,279.37 56.657,279.381 56.6732,279.377 56.6895,279.381 56.7057,279.383 56.7219,279.385 56.7382,279.374 56.7544,279.374 56.7706,279.368 56.7868,279.367 56.803,279.373 56.8193,279.373 56.8355,279.374 56.8517,279.375 56.868,279.376 56.8842,279.379 56.9004,279.378 56.9166,279.372 56.9328,279.381 56.9491,279.365 56.9653,279.383 56.9815,279.382 56.9977,279.37 57.014,279.377 57.0302,279.373" stroke-linejoin="round" stroke="#0071bc" fill="none" stroke-linecap="butt"/>
   <polyline stroke-width="0.5" points="63.7795,279.362 63.7958,279.36 63.812,279.361 63.8282,279.363 63.8444,279.356 63.8607,279.363 63.8769,279.357 63.8931,279.36 63.9093,279.354 63.9256,279.36 63.9418,279.355 63.958,279.354 63.9742,279.353 63.9904,279.355 64.0067,279.361 64.0229,279.355 64.0391,279.358 64.0554,279.354 64.0716,279.355 64.0878,279.356 64.104,279.355 64.1202,279.35 64.1365,279.361 64.1527,279.352 64.1689,279.357 64.1852,279.357 64.2014,279.355 64.2176,279.353 64.2338,279.361 64.25,279.355 64.2663,279.362 64.2825,279.358 64.2987,279.361" stroke-linejoin="round" stroke="#0071bc" fill="none" stroke-linecap="butt"/>
   <polyline stroke-width="0.5" points="73.1248,279.248 73.141,279.247 73.1572,279.256 73.1735,279.247 73.1897,279.247 73.2059,279.247 73.2221,279.246 73.2384,279.243 73.2546,279.244 73.2708,279.241 73.287,279.249 73.3033,279.239 73.3195,279.244 73.3357,279.243 73.3519,279.241 73.3681,279.244 73.3844,279.238 73.4006,279.237 73.4168,279.238 73.433,279.243 73.4493,279.239 73.4655,279.237 73.4817,279.24 73.4979,279.238 73.5142,279.237 73.5304,279.245 73.5466,279.232 73.5628,279.236 73.5791,279.245 73.5953,279.234 73.6115,279.229 73.6277,279.236 73.644,279.229" stroke-linejoin="round" stroke="#0071bc" fill="none" stroke-linecap="butt"/>
   <polyline stroke-width="0.5" points="61.7028,279.357 61.719,279.363 61.7353,279.367 61.7515,279.364 61.7677,279.366 61.7839,279.363 61.8002,279.366 61.8164,279.366 61.8326,279.369 61.8488,279.373 61.8651,279.363 61.8813,279.367 61.8975,279.36 61.9137,279.365 61.9299,279.365 61.9462,279.363 61.9624,279.369 61.9786,279.359 61.9949,279.364 62.0111,279.361 62.0273,279.359 62.0435,279.371 62.0598,279.363 62.076,279.363 62.0922,279.365 62.1084,279.366 62.1246,279.363 62.1409,279.367 62.1571,279.366 62.1733,279.366 62.1895,279.365 62.2058,279.363 62.222,279.368" stroke-linejoin="round" stroke="#0071bc" fill="none" stroke-linecap="butt"/>
   <polyline stroke-width="0.5" points="71.0481,279.296 71.0643,279.295 71.0805,279.296 71.0967,279.292 71.113,279.289 71.1292,279.294 71.1454,279.288 71.1616,279.294 71.1779,279.299 71.1941,279.295 71.2103,279.295 71.2265,279.29 71.2428,279.291 71.259,279.295 71.2752,279.29 71.2914,279.289 71.3076,279.283 71.3239,279.295 71.3401,279.285 71.3563,279.287 71.3725,279.283 71.3888,279.29 71.405,279.282 71.4212,279.291 71.4374,279.286 71.4537,279.284 71.4699,279.282 71.4861,279.287 71.5023,279.282 71.5186,279.282 71.5348,279.284 71.551,279.289 71.5672,279.286" stroke-linejoin="round" stroke="#0071bc" fill="none" stroke-linecap="butt"/>
   <polyline stroke-width="0.5" points="72.0864,279.277 72.1026,279.277 72.1189,279.272 72.1351,279.271 72.1513,279.277 72.1675,279.275 72.1838,279.273 72.2,279.276 72.2162,279.277 72.2325,279.269 72.2487,279.278 72.2649,279.272 72.2811,279.268 72.2973,279.263 72.3136,279.268 72.3298,279.266 72.346,279.273 72.3622,279.27 72.3785,279.273 72.3947,279.269 72.4109,279.269 72.4271,279.266 72.4434,279.28 72.4596,279.256 72.4758,279.263 72.492,279.261 72.5083,279.275 72.5245,279.267 72.5407,279.258 72.5569,279.265 72.5732,279.263 72.5894,279.265 72.6056,279.264" stroke-linejoin="round" stroke="#0071bc" fill="none" stroke-linecap="butt"/>
   <polyline stroke-width="0.5" points="75.2015,279.172 75.2177,279.165 75.2339,279.162 75.2502,279.163 75.2664,279.162 75.2826,279.167 75.2989,279.165 75.3151,279.152 75.3313,279.165 75.3475,279.161 75.3638,279.163 75.38,279.162 75.3962,279.156 75.4124,279.156 75.4286,279.153 75.4449,279.153 75.4611,279.152 75.4773,279.155 75.4935,279.145 75.5098,279.142 75.526,279.151 75.5422,279.146 75.5584,279.15 75.5747,279.149 75.5909,279.148 75.6071,279.148 75.6233,279.148 75.6396,279.146 75.6558,279.139 75.672,279.137 75.6882,279.137 75.7045,279.136 75.7207,279.145" stroke-linejoin="round" stroke="#0071bc" fill="none" stroke-linecap="butt"/>
   <polyline stroke-width="0.5" points="76.2399,279.1 76.2561,279.095 76.2723,279.095 76.2885,279.097 76.3048,279.082 76.321,279.09 76.3372,279.087 76.3534,279.091 76.3697,279.084 76.3859,279.085 76.4021,279.073 76.4183,279.081 76.4346,279.082 76.4508,279.077 76.467,279.075 76.4832,279.074 76.4995,279.075 76.5157,279.076 76.5319,279.077 76.5481,279.072 76.5644,279.071 76.5806,279.066 76.5968,279.063 76.613,279.069 76.6292,279.063 76.6455,279.063 76.6617,279.059 76.6779,279.057 76.6942,279.056 76.7104,279.056 76.7266,279.053 76.7428,279.052 76.759,279.05" stroke-linejoin="round" stroke="#0071bc" fill="none" stroke-linecap="butt"/>
   <polyline stroke-width="0.5" points="54.4343,272.71 54.4505,279.375 54.4667,279.372 54.483,279.382 54.4992,279.376 54.5154,279.378 54.5316,279.376 54.5479,279.378 54.5641,279.378 54.5803,279.374 54.5965,279.379 54.6127,279.379 54.629,279.381 54.6452,279.371 54.6614,279.38 54.6777,279.377 54.6939,279.375 54.7101,279.375 54.7263,279.383 54.7425,279.374 54.7588,279.379 54.775,279.376 54.7912,279.379 54.8074,279.381 54.8237,279.379 54.8399,279.377 54.8561,279.383 54.8723,279.382 54.8886,279.382 54.9048,279.38 54.921,279.376 54.9372,279.369 54.9535,279.377" stroke-linejoin="round" stroke="#0071bc" fill="none" stroke-linecap="butt"/>
   <polyline stroke-width="0.5" points="55.4726,279.377 55.4889,279.372 55.5051,279.376 55.5213,279.38 55.5376,279.38 55.5538,279.378 55.57,279.374 55.5862,279.372 55.6024,279.374 55.6187,279.372 55.6349,279.378 55.6511,279.37 55.6673,279.377 55.6836,279.37 55.6998,279.372 55.716,279.369 55.7322,279.366 55.7485,279.375 55.7647,279.385 55.7809,279.382 55.7971,279.369 55.8134,279.384 55.8296,279.387 55.8458,279.382 55.862,279.375 55.8783,279.379 55.8945,279.377 55.9107,279.382 55.9269,279.37 55.9432,279.378 55.9594,279.374 55.9756,279.375 55.9918,279.374" stroke-linejoin="round" stroke="#0071bc" fill="none" stroke-linecap="butt"/>
   <polyline stroke-width="0.5" points="64.8179,279.355 64.8341,279.352 64.8503,279.349 64.8666,279.349 64.8828,279.356 64.899,279.358 64.9153,279.358 64.9315,279.357 64.9477,279.35 64.9639,279.353 64.9801,279.355 64.9964,279.354 65.0126,279.35 65.0288,279.348 65.045,279.35 65.0613,279.344 65.0775,279.351 65.0937,279.349 65.1099,279.348 65.1262,279.356 65.1424,279.35 65.1586,279.358 65.1748,279.349 65.1911,279.352 65.2073,279.349 65.2235,279.349 65.2397,279.35 65.256,279.35 65.2722,279.353 65.2884,279.348 65.3046,279.352 65.3208,279.351 65.3371,279.349" stroke-linejoin="round" stroke="#0071bc" fill="none" stroke-linecap="butt"/>
   <polyline stroke-width="0.5" points="78.3166,278.764 78.3328,278.759 78.349,278.753 78.3653,278.752 78.3815,278.745 78.3977,278.741 78.4139,278.733 78.4302,278.726 78.4464,278.725 78.4626,278.715 78.4788,278.712 78.4951,278.707 78.5113,278.695 78.5275,278.7 78.5437,278.687 78.56,278.681 78.5762,278.679 78.5924,278.674 78.6086,278.664 78.6248,278.659 78.6411,278.655 78.6573,278.642 78.6735,278.635 78.6897,278.625 78.706,278.623 78.7222,278.62 78.7384,278.614 78.7547,278.599 78.7709,278.585 78.7871,278.586 78.8033,278.58 78.8195,278.569 78.8358,278.56" stroke-linejoin="round" stroke="#0071bc" fill="none" stroke-linecap="butt"/>
   <polyline stroke-width="0.5" points="62.7412,279.36 62.7574,279.362 62.7736,279.359 62.7898,279.361 62.8061,279.361 62.8223,279.36 62.8385,279.36 62.8548,279.364 62.871,279.359 62.8872,279.363 62.9034,279.366 62.9196,279.362 62.9359,279.364 62.9521,279.36 62.9683,279.362 62.9845,279.354 63.0008,279.362 63.017,279.366 63.0332,279.355 63.0494,279.36 63.0657,279.357 63.0819,279.365 63.0981,279.355 63.1143,279.357 63.1306,279.362 63.1468,279.355 63.163,279.359 63.1792,279.362 63.1954,279.369 63.2117,279.363 63.2279,279.366 63.2441,279.359 63.2604,279.356" stroke-linejoin="round" stroke="#0071bc" fill="none" stroke-linecap="butt"/>
   <polyline stroke-width="0.5" points="66.8946,279.34 66.9108,279.342 66.9271,279.347 66.9433,279.349 66.9595,279.342 66.9757,279.338 66.992,279.334 67.0082,279.347 67.0244,279.345 67.0406,279.335 67.0569,279.343 67.0731,279.338 67.0893,279.338 67.1055,279.335 67.1218,279.344 67.138,279.342 67.1542,279.337 67.1704,279.334 67.1867,279.337 67.2029,279.335 67.2191,279.329 67.2353,279.338 67.2516,279.336 67.2678,279.337 67.284,279.338 67.3002,279.342 67.3165,279.342 67.3327,279.344 67.3489,279.336 67.3651,279.336 67.3813,279.343 67.3976,279.338 67.4138,279.34" stroke-linejoin="round" stroke="#0071bc" fill="none" stroke-linecap="butt"/>
   <polyline stroke-width="0.5" points="70.0097,279.309 70.0259,279.309 70.0422,279.309 70.0584,279.306 70.0746,279.31 70.0908,279.309 70.107,279.306 70.1233,279.312 70.1395,279.304 70.1557,279.305 70.172,279.309 70.1882,279.302 70.2044,279.307 70.2206,279.301 70.2368,279.301 70.2531,279.309 70.2693,279.311 70.2855,279.306 70.3017,279.307 70.318,279.307 70.3342,279.309 70.3504,279.3 70.3666,279.308 70.3829,279.305 70.3991,279.3 70.4153,279.305 70.4315,279.305 70.4478,279.302 70.464,279.306 70.4802,279.3 70.4964,279.305 70.5126,279.301 70.5289,279.3" stroke-linejoin="round" stroke="#0071bc" fill="none" stroke-linecap="butt"/>
   <polyline stroke-width="0.5" points="67.933,279.325 67.9492,279.332 67.9654,279.33 67.9817,279.332 67.9979,279.326 68.0141,279.337 68.0303,279.323 68.0465,279.328 68.0628,279.329 68.079,279.334 68.0952,279.329 68.1115,279.327 68.1277,279.326 68.1439,279.33 68.1601,279.326 68.1763,279.334 68.1926,279.336 68.2088,279.328 68.225,279.329 68.2412,279.325 68.2575,279.329 68.2737,279.335 68.2899,279.332 68.3061,279.332 68.3224,279.328 68.3386,279.322 68.3548,279.33 68.371,279.331 68.3873,279.326 68.4035,279.328 68.4197,279.327 68.4359,279.328 68.4521,279.325" stroke-linejoin="round" stroke="#0071bc" fill="none" stroke-linecap="butt"/>
   <polyline stroke-width="0.5" points="77.2782,278.988 77.2944,278.981 77.3107,278.985 77.3269,278.979 77.3431,278.975 77.3593,278.977 77.3756,278.965 77.3918,278.962 77.408,278.962 77.4242,278.955 77.4405,278.962 77.4567,278.956 77.4729,278.949 77.4892,278.944 77.5054,278.944 77.5216,278.939 77.5378,278.949 77.554,278.944 77.5703,278.938 77.5865,278.937 77.6027,278.925 77.6189,278.926 77.6352,278.92 77.6514,278.922 77.6676,278.921 77.6838,278.917 77.7001,278.915 77.7163,278.912 77.7325,278.9 77.7487,278.906 77.765,278.905 77.7812,278.895 77.7974,278.895" stroke-linejoin="round" stroke="#0071bc" fill="none" stroke-linecap="butt"/>
   <polyline stroke-width="0.5" points="68.9713,279.324 68.9876,279.321 69.0038,279.319 69.02,279.321 69.0362,279.319 69.0525,279.318 69.0687,279.324 69.0849,279.324 69.1011,279.314 69.1174,279.316 69.1336,279.324 69.1498,279.311 69.166,279.32 69.1823,279.32 69.1985,279.323 69.2147,279.32 69.2309,279.315 69.2471,279.319 69.2634,279.316 69.2796,279.32 69.2958,279.317 69.3121,279.315 69.3283,279.318 69.3445,279.316 69.3607,279.32 69.377,279.312 69.3932,279.314 69.4094,279.308 69.4256,279.311 69.4418,279.318 69.4581,279.312 69.4743,279.317 69.4905,279.319" stroke-linejoin="round" stroke="#0071bc" fill="none" stroke-linecap="butt"/>
   <polyline stroke-width="0.5" points="90.7769,279.37 90.7931,279.365 90.8094,279.368 90.8256,279.362 90.8418,279.358 90.858,279.354 90.8743,279.396 90.8905,279.377 90.9067,279.376 90.9229,279.371 90.9392,279.37 90.9554,279.376 90.9716,279.374 90.9878,279.366 91.0041,279.368 91.0203,279.367 91.0365,279.371 91.0527,279.374 91.069,279.372 91.0852,279.369 91.1014,279.376 91.1176,279.37 91.1339,279.37 91.1501,279.372 91.1663,279.369 91.1825,279.375 91.1988,279.374 91.215,279.375 91.2312,279.374 91.2474,279.373 91.2636,279.373 91.2799,279.378 91.2961,279.371" stroke-linejoin="round" stroke="#0071bc" fill="none" stroke-linecap="butt"/>
   <polyline stroke-width="0.5" points="82.47,278.667 82.4863,278.678 82.5025,278.681 82.5187,278.687 82.5349,278.694 82.5511,278.701 82.5674,278.703 82.5836,278.717 82.5998,278.712 82.6161,278.733 82.6323,278.735 82.6485,278.737 82.6647,278.746 82.681,278.755 82.6972,278.755 82.7134,278.765 82.7296,278.774 82.7458,278.772 82.7621,278.787 82.7783,278.779 82.7945,278.79 82.8107,278.795 82.827,278.805 82.8432,278.806 82.8594,278.813 82.8756,278.809 82.8919,278.82 82.9081,278.824 82.9243,278.831 82.9405,278.838 82.9568,278.842 82.973,278.853 82.9892,278.857" stroke-linejoin="round" stroke="#0071bc" fill="none" stroke-linecap="butt"/>
   <polyline stroke-width="0.5" points="88.7002,279.327 88.7164,279.328 88.7326,279.331 88.7489,279.324 88.7651,279.323 88.7813,279.324 88.7975,279.331 88.8138,279.325 88.83,279.33 88.8462,279.338 88.8624,279.331 88.8787,279.335 88.8949,279.327 88.9111,279.341 88.9273,279.336 88.9436,279.335 88.9598,279.332 88.976,279.332 88.9922,279.331 89.0085,279.336 89.0247,279.335 89.0409,279.332 89.0571,279.331 89.0734,279.339 89.0896,279.335 89.1058,279.336 89.122,279.337 89.1383,279.34 89.1545,279.337 89.1707,279.339 89.1869,279.343 89.2031,279.336 89.2194,279.34" stroke-linejoin="round" stroke="#0071bc" fill="none" stroke-linecap="butt"/>
   <polyline stroke-width="0.5" points="85.5851,279.208 85.6013,279.206 85.6176,279.206 85.6338,279.216 85.65,279.214 85.6662,279.204 85.6825,279.211 85.6987,279.218 85.7149,279.212 85.7311,279.208 85.7474,279.215 85.7636,279.214 85.7798,279.216 85.796,279.222 85.8122,279.213 85.8285,279.222 85.8447,279.219 85.8609,279.223 85.8772,279.224 85.8934,279.222 85.9096,279.219 85.9258,279.228 85.9421,279.228 85.9583,279.22 85.9745,279.221 85.9907,279.226 86.0069,279.226 86.0232,279.222 86.0394,279.236 86.0556,279.237 86.0718,279.226 86.0881,279.236 86.1043,279.234" stroke-linejoin="round" stroke="#0071bc" fill="none" stroke-linecap="butt"/>
   <polyline stroke-width="0.5" points="83.5084,278.974 83.5246,278.976 83.5408,278.973 83.5571,278.978 83.5733,278.987 83.5895,278.988 83.6057,278.988 83.622,278.994 83.6382,278.998 83.6544,279 83.6706,279.006 83.6869,279 83.7031,279.011 83.7193,279.005 83.7355,279.004 83.7518,279.019 83.768,279.011 83.7842,279.032 83.8004,279.021 83.8167,279.017 83.8329,279.035 83.8491,279.028 83.8653,279.034 83.8816,279.033 83.8978,279.035 83.914,279.046 83.9302,279.044 83.9464,279.047 83.9627,279.045 83.9789,279.059 83.9951,279.058 84.0114,279.047 84.0276,279.06" stroke-linejoin="round" stroke="#0071bc" fill="none" stroke-linecap="butt"/>
   <polyline stroke-width="0.5" points="86.6235,279.26 86.6397,279.256 86.6559,279.263 86.6721,279.26 86.6884,279.26 86.7046,279.268 86.7208,279.258 86.737,279.265 86.7533,279.267 86.7695,279.268 86.7857,279.269 86.8019,279.264 86.8182,279.266 86.8344,279.264 86.8506,279.272 86.8668,279.276 86.8831,279.269 86.8993,279.266 86.9155,279.276 86.9317,279.271 86.948,279.281 86.9642,279.268 86.9804,279.282 86.9966,279.274 87.0129,279.267 87.0291,279.276 87.0453,279.28 87.0615,279.269 87.0778,279.281 87.094,279.276 87.1102,279.275 87.1264,279.285 87.1427,279.28" stroke-linejoin="round" stroke="#0071bc" fill="none" stroke-linecap="butt"/>
   <polyline stroke-width="0.5" points="81.4317,277.571 81.4479,277.614 81.4641,277.637 81.4803,277.688 81.4966,277.71 81.5128,277.743 81.529,277.783 81.5452,277.805 81.5615,277.841 81.5777,277.861 81.5939,277.896 81.6101,277.92 81.6264,277.949 81.6426,277.971 81.6588,277.989 81.675,278.018 81.6913,278.037 81.7075,278.064 81.7237,278.081 81.7399,278.102 81.7562,278.127 81.7724,278.144 81.7886,278.162 81.8048,278.182 81.8211,278.198 81.8373,278.217 81.8535,278.235 81.8697,278.249 81.8859,278.269 81.9022,278.287 81.9184,278.299 81.9346,278.311 81.9509,278.329" stroke-linejoin="round" stroke="#0071bc" fill="none" stroke-linecap="butt"/>
   <polyline stroke-width="0.5" points="84.5468,279.119 84.563,279.124 84.5792,279.117 84.5954,279.122 84.6116,279.122 84.6279,279.122 84.6441,279.125 84.6603,279.127 84.6766,279.12 84.6928,279.149 84.709,279.141 84.7252,279.13 84.7414,279.137 84.7577,279.145 84.7739,279.144 84.7901,279.142 84.8063,279.138 84.8226,279.15 84.8388,279.147 84.855,279.144 84.8712,279.145 84.8875,279.154 84.9037,279.156 84.9199,279.155 84.9361,279.157 84.9524,279.151 84.9686,279.154 84.9848,279.166 85.001,279.165 85.0173,279.164 85.0335,279.168 85.0497,279.169 85.0659,279.171" stroke-linejoin="round" stroke="#0071bc" fill="none" stroke-linecap="butt"/>
   <polyline stroke-width="0.5" points="79.3549,278.19 79.3712,278.174 79.3874,278.148 79.4036,278.134 79.4198,278.114 79.4361,278.096 79.4523,278.079 79.4685,278.063 79.4847,278.039 79.501,278.016 79.5172,278 79.5334,277.975 79.5496,277.957 79.5659,277.929 79.5821,277.907 79.5983,277.881 79.6145,277.854 79.6308,277.826 79.647,277.81 79.6632,277.766 79.6794,277.749 79.6956,277.715 79.7119,277.674 79.7281,277.649 79.7443,277.624 79.7606,277.576 79.7768,277.549 79.793,277.502 79.8092,277.466 79.8255,277.423 79.8417,277.379 79.8579,277.335 79.8741,277.285" stroke-linejoin="round" stroke="#0071bc" fill="none" stroke-linecap="butt"/>
   <polyline stroke-width="0.5" points="89.7385,279.347 89.7548,279.349 89.771,279.354 89.7872,279.353 89.8035,279.35 89.8197,279.353 89.8359,279.35 89.8521,279.35 89.8684,279.35 89.8846,279.35 89.9008,279.354 89.917,279.354 89.9333,279.353 89.9495,279.35 89.9657,279.353 89.9819,279.351 89.9982,279.361 90.0144,279.363 90.0306,279.357 90.0468,279.349 90.063,279.362 90.0793,279.358 90.0955,279.35 90.1117,279.348 90.1279,279.358 90.1442,279.357 90.1604,279.353 90.1766,279.358 90.1928,279.362 90.2091,279.355 90.2253,279.36 90.2415,279.354 90.2577,279.356" stroke-linejoin="round" stroke="#0071bc" fill="none" stroke-linecap="butt"/>
   <polyline stroke-width="0.5" points="80.3933,272.11 80.4095,271.517 80.4258,270.826 80.442,269.997 80.4582,268.991 80.4744,267.763 80.4907,266.195 80.5069,264.143 80.5231,261.357 80.5393,257.285 80.5556,250.906 80.5718,239.352 80.588,212.002 80.6042,68.6384 80.6205,92.4227 80.6367,214.774 80.6529,240.36 80.6691,251.403 80.6853,257.622 80.7016,261.601 80.7178,264.345 80.734,266.362 80.7502,267.906 80.7665,269.118 80.7827,270.109 80.7989,270.936 80.8151,271.614 80.8314,272.205 80.8476,272.717 80.8638,273.146 80.88,273.527 80.8963,273.87 80.9125,274.186" stroke-linejoin="round" stroke="#0071bc" fill="none" stroke-linecap="butt"/>
   <polyline stroke-width="0.5" points="87.6618,279.293 87.6781,279.29 87.6943,279.301 87.7105,279.3 87.7267,279.296 87.743,279.301 87.7592,279.303 87.7754,279.305 87.7916,279.299 87.8079,279.301 87.8241,279.304 87.8403,279.299 87.8565,279.303 87.8727,279.303 87.889,279.297 87.9052,279.306 87.9214,279.305 87.9377,279.305 87.9539,279.313 87.9701,279.31 87.9863,279.307 88.0025,279.309 88.0188,279.313 88.035,279.31 88.0512,279.309 88.0674,279.308 88.0837,279.308 88.0999,279.308 88.1161,279.311 88.1323,279.316 88.1486,279.316 88.1648,279.316 88.181,279.307" stroke-linejoin="round" stroke="#0071bc" fill="none" stroke-linecap="butt"/>
   <polyline stroke-width="0.5" points="94.9304,279.416 94.9466,279.413 94.9628,279.413 94.979,279.406 94.9953,279.402 95.0115,279.416 95.0277,279.404 95.0439,279.41 95.0602,279.415 95.0764,279.409 95.0926,279.408 95.1088,279.414 95.1251,279.41 95.1413,279.408 95.1575,279.418 95.1737,279.42 95.1899,279.415 95.2062,279.413 95.2224,279.413 95.2386,279.418 95.2549,279.414 95.2711,279.421 95.2873,279.414 95.3035,279.414 95.3198,279.418 95.336,279.413 95.3522,279.413 95.3684,279.414 95.3846,279.412 95.4009,279.419 95.4171,279.415 95.4333,279.419 95.4495,279.416" stroke-linejoin="round" stroke="#0071bc" fill="none" stroke-linecap="butt"/>
   <polyline stroke-width="0.5" points="91.8153,279.378 91.8315,279.382 91.8477,279.385 91.864,279.383 91.8802,279.38 91.8964,279.382 91.9126,279.385 91.9289,279.384 91.9451,279.383 91.9613,279.383 91.9775,279.385 91.9937,279.383 92.01,279.384 92.0262,279.382 92.0424,279.382 92.0586,279.378 92.0749,279.38 92.0911,279.39 92.1073,279.383 92.1235,279.378 92.1398,279.387 92.156,279.384 92.1722,279.38 92.1884,279.387 92.2047,279.377 92.2209,279.393 92.2371,279.38 92.2533,279.394 92.2696,279.38 92.2858,279.383 92.302,279.378 92.3182,279.388 92.3345,279.382" stroke-linejoin="round" stroke="#0071bc" fill="none" stroke-linecap="butt"/>
   <polyline stroke-width="0.5" points="92.8536,279.4 92.8699,279.39 92.8861,279.396 92.9023,279.395 92.9185,279.395 92.9348,279.391 92.951,279.393 92.9672,279.392 92.9834,279.402 92.9997,279.397 93.0159,279.402 93.0321,279.398 93.0483,279.391 93.0646,279.398 93.0808,279.389 93.097,279.393 93.1132,279.391 93.1295,279.391 93.1457,279.399 93.1619,279.394 93.1781,279.393 93.1944,279.4 93.2106,279.396 93.2268,279.396 93.243,279.391 93.2593,279.393 93.2755,279.391 93.2917,279.393 93.3079,279.391 93.3241,279.402 93.3404,279.404 93.3566,279.396 93.3728,279.398" stroke-linejoin="round" stroke="#0071bc" fill="none" stroke-linecap="butt"/>
   <polyline stroke-width="0.5" points="93.892,279.406 93.9082,279.402 93.9245,279.404 93.9407,279.402 93.9569,279.403 93.9731,279.401 93.9893,279.409 94.0056,279.401 94.0218,279.406 94.038,279.401 94.0542,279.401 94.0705,279.404 94.0867,279.409 94.1029,279.403 94.1191,279.404 94.1354,279.405 94.1516,279.405 94.1678,279.412 94.184,279.407 94.2003,279.405 94.2165,279.409 94.2327,279.413 94.2489,279.406 94.2652,279.406 94.2814,279.405 94.2976,279.401 94.3138,279.408 94.3301,279.413 94.3463,279.407 94.3625,279.403 94.3787,279.41 94.395,279.411 94.4112,279.404" stroke-linejoin="round" stroke="#0071bc" fill="none" stroke-linecap="butt"/>
   <polyline stroke-width="0.5" points="60.1453,279.367 60.1615,279.366 60.1777,279.37 60.1939,279.361 60.2102,279.362 60.2264,279.372 60.2426,279.364 60.2589,279.373 60.2751,279.369 60.2913,279.372 60.3075,279.375 60.3237,279.369 60.34,279.369 60.3562,279.357 60.3724,279.368 60.3886,279.373 60.4049,279.372 60.4211,279.363 60.4373,279.365 60.4535,279.375 60.4698,279.369 60.486,279.368 60.5022,279.374 60.5184,279.371 60.5347,279.372 60.5509,279.371 60.5671,279.36 60.5833,279.364 60.5995,279.367 60.6158,279.367 60.632,279.372 60.6482,279.365 60.6645,279.366" stroke-linejoin="round" stroke="#0071bc" fill="none" stroke-linecap="butt"/>
   <polyline stroke-width="0.5" points="72.6056,279.264 72.6218,279.256 72.6381,279.258 72.6543,279.263 72.6705,279.26 72.6867,279.261 72.7029,279.261 72.7192,279.259 72.7354,279.255 72.7516,279.257 72.7679,279.262 72.7841,279.254 72.8003,279.262 72.8165,279.254 72.8327,279.256 72.849,279.253 72.8652,279.26 72.8814,279.252 72.8976,279.254 72.9139,279.256 72.9301,279.253 72.9463,279.259 72.9625,279.25 72.9788,279.25 72.995,279.255 73.0112,279.254 73.0274,279.254 73.0437,279.252 73.0599,279.249 73.0761,279.251 73.0923,279.251 73.1086,279.245 73.1248,279.248" stroke-linejoin="round" stroke="#0071bc" fill="none" stroke-linecap="butt"/>
   <polyline stroke-width="0.5" points="78.8358,278.56 78.852,278.555 78.8682,278.547 78.8844,278.536 78.9007,278.527 78.9169,278.517 78.9331,278.513 78.9493,278.496 78.9656,278.494 78.9818,278.476 78.998,278.474 79.0142,278.467 79.0305,278.449 79.0467,278.438 79.0629,278.433 79.0791,278.42 79.0954,278.409 79.1116,278.395 79.1278,278.383 79.144,278.373 79.1602,278.356 79.1765,278.344 79.1927,278.336 79.2089,278.321 79.2252,278.305 79.2414,278.296 79.2576,278.285 79.2738,278.263 79.2901,278.255 79.3063,278.232 79.3225,278.222 79.3387,278.207 79.3549,278.19" stroke-linejoin="round" stroke="#0071bc" fill="none" stroke-linecap="butt"/>
   <polyline stroke-width="0.5" points="66.3754,279.341 66.3917,279.351 66.4079,279.343 66.4241,279.347 66.4403,279.347 66.4566,279.34 66.4728,279.342 66.489,279.349 66.5052,279.346 66.5215,279.341 66.5377,279.343 66.5539,279.347 66.5701,279.344 66.5863,279.344 66.6026,279.343 66.6188,279.342 66.635,279.35 66.6513,279.348 66.6675,279.342 66.6837,279.343 66.6999,279.345 66.7161,279.344 66.7324,279.345 66.7486,279.34 66.7648,279.344 66.7811,279.336 66.7973,279.337 66.8135,279.341 66.8297,279.345 66.8459,279.339 66.8622,279.339 66.8784,279.345 66.8946,279.34" stroke-linejoin="round" stroke="#0071bc" fill="none" stroke-linecap="butt"/>
   <polyline stroke-width="0.5" points="91.2961,279.371 91.3123,279.379 91.3285,279.37 91.3448,279.37 91.361,279.381 91.3772,279.379 91.3934,279.378 91.4097,279.375 91.4259,279.372 91.4421,279.371 91.4583,279.381 91.4746,279.368 91.4908,279.377 91.507,279.376 91.5232,279.375 91.5395,279.379 91.5557,279.371 91.5719,279.381 91.5881,279.381 91.6044,279.372 91.6206,279.382 91.6368,279.383 91.653,279.38 91.6693,279.376 91.6855,279.377 91.7017,279.381 91.7179,279.375 91.7342,279.379 91.7504,279.375 91.7666,279.385 91.7828,279.384 91.799,279.378 91.8153,279.378" stroke-linejoin="round" stroke="#0071bc" fill="none" stroke-linecap="butt"/>
   <polyline stroke-width="0.5" points="85.0659,279.171 85.0822,279.166 85.0984,279.173 85.1146,279.166 85.1308,279.177 85.147,279.173 85.1633,279.176 85.1795,279.179 85.1957,279.178 85.212,279.18 85.2282,279.174 85.2444,279.179 85.2606,279.192 85.2768,279.18 85.2931,279.185 85.3093,279.189 85.3255,279.187 85.3417,279.185 85.358,279.187 85.3742,279.188 85.3904,279.191 85.4066,279.189 85.4229,279.199 85.4391,279.199 85.4553,279.201 85.4715,279.193 85.4878,279.198 85.504,279.194 85.5202,279.207 85.5364,279.197 85.5527,279.204 85.5689,279.198 85.5851,279.208" stroke-linejoin="round" stroke="#0071bc" fill="none" stroke-linecap="butt"/>
   <polyline stroke-width="0.5" points="59.1069,279.374 59.1231,279.37 59.1394,279.378 59.1556,279.37 59.1718,279.371 59.188,279.367 59.2043,279.374 59.2205,279.375 59.2367,279.376 59.2529,279.369 59.2691,279.371 59.2854,279.371 59.3016,279.371 59.3178,279.37 59.3341,279.368 59.3503,279.374 59.3665,279.374 59.3827,279.369 59.399,279.367 59.4152,279.374 59.4314,279.376 59.4476,279.371 59.4639,279.367 59.4801,279.372 59.4963,279.374 59.5125,279.377 59.5287,279.377 59.545,279.369 59.5612,279.371 59.5774,279.369 59.5936,279.367 59.6099,279.37 59.6261,279.378" stroke-linejoin="round" stroke="#0071bc" fill="none" stroke-linecap="butt"/>
   <polyline stroke-width="0.5" points="58.0686,279.378 58.0848,279.372 58.101,279.378 58.1172,279.371 58.1335,279.374 58.1497,279.374 58.1659,279.376 58.1821,279.379 58.1983,279.38 58.2146,279.376 58.2308,279.374 58.247,279.374 58.2632,279.372 58.2795,279.372 58.2957,279.364 58.3119,279.371 58.3281,279.363 58.3444,279.372 58.3606,279.377 58.3768,279.372 58.393,279.374 58.4093,279.368 58.4255,279.374 58.4417,279.373 58.4579,279.373 58.4742,279.38 58.4904,279.368 58.5066,279.372 58.5228,279.376 58.539,279.383 58.5553,279.373 58.5715,279.376 58.5877,279.372" stroke-linejoin="round" stroke="#0071bc" fill="none" stroke-linecap="butt"/>
   <polyline stroke-width="0.5" points="71.5672,279.286 71.5835,279.281 71.5997,279.288 71.6159,279.281 71.6321,279.291 71.6484,279.281 71.6646,279.286 71.6808,279.277 71.697,279.278 71.7133,279.281 71.7295,279.283 71.7457,279.28 71.7619,279.275 71.7782,279.277 71.7944,279.278 71.8106,279.273 71.8268,279.28 71.843,279.276 71.8593,279.276 71.8755,279.278 71.8917,279.274 71.908,279.276 71.9242,279.276 71.9404,279.273 71.9566,279.284 71.9728,279.275 71.9891,279.276 72.0053,279.277 72.0215,279.272 72.0378,279.272 72.054,279.277 72.0702,279.271 72.0864,279.277" stroke-linejoin="round" stroke="#0071bc" fill="none" stroke-linecap="butt"/>
   <polyline stroke-width="0.5" points="64.2987,279.361 64.3149,279.356 64.3312,279.352 64.3474,279.358 64.3636,279.353 64.3798,279.361 64.3961,279.356 64.4123,279.361 64.4285,279.35 64.4447,279.358 64.461,279.358 64.4772,279.353 64.4934,279.356 64.5096,279.351 64.5258,279.353 64.5421,279.356 64.5583,279.352 64.5745,279.358 64.5908,279.355 64.607,279.358 64.6232,279.355 64.6394,279.353 64.6557,279.351 64.6719,279.357 64.6881,279.351 64.7043,279.349 64.7206,279.357 64.7368,279.354 64.753,279.354 64.7692,279.359 64.7854,279.355 64.8017,279.354 64.8179,279.355" stroke-linejoin="round" stroke="#0071bc" fill="none" stroke-linecap="butt"/>
   <polyline stroke-width="0.5" points="65.3371,279.349 65.3533,279.352 65.3695,279.349 65.3857,279.352 65.402,279.352 65.4182,279.347 65.4344,279.358 65.4507,279.351 65.4669,279.343 65.4831,279.354 65.4993,279.354 65.5155,279.362 65.5318,279.35 65.548,279.348 65.5642,279.352 65.5804,279.351 65.5967,279.342 65.6129,279.349 65.6291,279.345 65.6453,279.349 65.6616,279.346 65.6778,279.347 65.694,279.351 65.7102,279.352 65.7265,279.361 65.7427,279.346 65.7589,279.344 65.7751,279.342 65.7914,279.35 65.8076,279.354 65.8238,279.346 65.84,279.343 65.8562,279.353" stroke-linejoin="round" stroke="#0071bc" fill="none" stroke-linecap="butt"/>
   <polyline stroke-width="0.5" points="76.759,279.05 76.7753,279.042 76.7915,279.044 76.8077,279.045 76.8239,279.045 76.8402,279.04 76.8564,279.037 76.8726,279.04 76.8889,279.039 76.9051,279.03 76.9213,279.026 76.9375,279.031 76.9537,279.021 76.97,279.029 76.9862,279.017 77.0024,279.016 77.0186,279.022 77.0349,279.014 77.0511,279.023 77.0673,279.016 77.0835,278.998 77.0998,279.007 77.116,279.003 77.1322,279.001 77.1484,279.007 77.1647,279 77.1809,278.994 77.1971,278.988 77.2133,278.992 77.2296,278.99 77.2458,278.992 77.262,278.98 77.2782,278.988" stroke-linejoin="round" stroke="#0071bc" fill="none" stroke-linecap="butt"/>
   <polyline stroke-width="0.5" points="77.7974,278.895 77.8136,278.889 77.8298,278.885 77.8461,278.884 77.8623,278.888 77.8785,278.884 77.8948,278.869 77.911,278.868 77.9272,278.864 77.9434,278.868 77.9596,278.856 77.9759,278.855 77.9921,278.859 78.0083,278.851 78.0246,278.843 78.0408,278.845 78.057,278.838 78.0732,278.828 78.0894,278.833 78.1057,278.822 78.1219,278.815 78.1381,278.82 78.1543,278.81 78.1706,278.805 78.1868,278.797 78.203,278.797 78.2192,278.793 78.2355,278.793 78.2517,278.786 78.2679,278.78 78.2841,278.769 78.3004,278.772 78.3166,278.764" stroke-linejoin="round" stroke="#0071bc" fill="none" stroke-linecap="butt"/>
   <polyline stroke-width="0.5" points="70.5289,279.3 70.5451,279.301 70.5613,279.303 70.5776,279.302 70.5938,279.297 70.61,279.299 70.6262,279.3 70.6424,279.303 70.6587,279.294 70.6749,279.302 70.6911,279.292 70.7074,279.295 70.7236,279.296 70.7398,279.284 70.756,279.296 70.7722,279.299 70.7885,279.3 70.8047,279.303 70.8209,279.297 70.8371,279.293 70.8534,279.299 70.8696,279.301 70.8858,279.297 70.9021,279.295 70.9183,279.296 70.9345,279.294 70.9507,279.301 70.9669,279.297 70.9832,279.293 70.9994,279.297 71.0156,279.302 71.0318,279.291 71.0481,279.296" stroke-linejoin="round" stroke="#0071bc" fill="none" stroke-linecap="butt"/>
   <polyline stroke-width="0.5" points="84.0276,279.06 84.0438,279.068 84.06,279.063 84.0762,279.057 84.0925,279.065 84.1087,279.066 84.1249,279.077 84.1411,279.069 84.1574,279.076 84.1736,279.072 84.1898,279.073 84.206,279.083 84.2223,279.078 84.2385,279.076 84.2547,279.084 84.2709,279.083 84.2872,279.09 84.3034,279.088 84.3196,279.079 84.3358,279.095 84.3521,279.097 84.3683,279.092 84.3845,279.102 84.4007,279.105 84.417,279.099 84.4332,279.11 84.4494,279.104 84.4656,279.111 84.4818,279.109 84.4981,279.123 84.5143,279.121 84.5305,279.115 84.5468,279.119" stroke-linejoin="round" stroke="#0071bc" fill="none" stroke-linecap="butt"/>
   <polyline stroke-width="0.5" points="89.2194,279.34 89.2356,279.34 89.2518,279.339 89.2681,279.344 89.2843,279.34 89.3005,279.339 89.3167,279.34 89.333,279.338 89.3492,279.346 89.3654,279.344 89.3816,279.338 89.3978,279.342 89.4141,279.341 89.4303,279.344 89.4465,279.341 89.4627,279.352 89.479,279.345 89.4952,279.342 89.5114,279.352 89.5276,279.343 89.5439,279.346 89.5601,279.347 89.5763,279.346 89.5925,279.344 89.6088,279.343 89.625,279.352 89.6412,279.347 89.6574,279.346 89.6737,279.351 89.6899,279.343 89.7061,279.35 89.7223,279.346 89.7385,279.347" stroke-linejoin="round" stroke="#0071bc" fill="none" stroke-linecap="butt"/>
   <polyline stroke-width="0.5" points="90.2577,279.356 90.274,279.357 90.2902,279.357 90.3064,279.362 90.3226,279.36 90.3389,279.36 90.3551,279.361 90.3713,279.36 90.3875,279.356 90.4038,279.362 90.42,279.357 90.4362,279.36 90.4524,279.355 90.4687,279.36 90.4849,279.372 90.5011,279.361 90.5173,279.359 90.5336,279.366 90.5498,279.356 90.566,279.353 90.5822,279.368 90.5984,279.367 90.6147,279.367 90.6309,279.357 90.6471,279.359 90.6633,279.363 90.6796,279.36 90.6958,279.367 90.712,279.37 90.7282,279.366 90.7445,279.368 90.7607,279.362 90.7769,279.37" stroke-linejoin="round" stroke="#0071bc" fill="none" stroke-linecap="butt"/>
   <polyline stroke-width="0.5" points="95.4495,279.416 95.4658,279.418 95.482,279.415 95.4982,279.419 95.5144,279.416 95.5307,279.418 95.5469,279.415 95.5631,279.417 95.5793,279.418 95.5956,279.417 95.6118,279.415 95.628,279.415 95.6442,279.421 95.6605,279.423 95.6767,279.417 95.6929,279.417 95.7091,279.416 95.7253,279.414 95.7416,279.411 95.7578,279.411 95.774,279.412 95.7903,279.424 95.8065,279.416 95.8227,279.416 95.8389,279.412 95.8551,279.418 95.8714,279.418 95.8876,279.414 95.9038,279.413 95.9201,279.415 95.9363,279.416 95.9525,279.424 95.9687,279.423" stroke-linejoin="round" stroke="#0071bc" fill="none" stroke-linecap="butt"/>
   <polyline stroke-width="0.5" points="82.9892,278.857 83.0054,278.857 83.0217,278.863 83.0379,278.857 83.0541,278.87 83.0703,278.882 83.0866,278.878 83.1028,278.887 83.119,278.888 83.1352,278.891 83.1515,278.895 83.1677,278.894 83.1839,278.899 83.2001,278.902 83.2164,278.914 83.2326,278.92 83.2488,278.913 83.265,278.92 83.2812,278.93 83.2975,278.92 83.3137,278.929 83.3299,278.931 83.3462,278.946 83.3624,278.949 83.3786,278.944 83.3948,278.95 83.411,278.953 83.4273,278.959 83.4435,278.969 83.4597,278.967 83.4759,278.962 83.4922,278.968 83.5084,278.974" stroke-linejoin="round" stroke="#0071bc" fill="none" stroke-linecap="butt"/>
   <polyline stroke-width="0.5" points="57.0302,279.373 57.0464,279.386 57.0626,279.371 57.0789,279.369 57.0951,279.362 57.1113,279.369 57.1275,279.373 57.1438,279.378 57.16,279.372 57.1762,279.383 57.1924,279.379 57.2087,279.375 57.2249,279.373 57.2411,279.366 57.2573,279.381 57.2736,279.373 57.2898,279.374 57.306,279.377 57.3222,279.384 57.3385,279.381 57.3547,279.377 57.3709,279.38 57.3871,279.373 57.4034,279.382 57.4196,279.38 57.4358,279.374 57.452,279.378 57.4682,279.375 57.4845,279.375 57.5007,279.374 57.5169,279.37 57.5331,279.38 57.5494,279.383" stroke-linejoin="round" stroke="#0071bc" fill="none" stroke-linecap="butt"/>
   <polyline stroke-width="0.5" points="61.1836,279.366 61.1999,279.361 61.2161,279.372 61.2323,279.37 61.2485,279.369 61.2648,279.369 61.281,279.365 61.2972,279.363 61.3134,279.365 61.3297,279.359 61.3459,279.364 61.3621,279.365 61.3783,279.373 61.3945,279.371 61.4108,279.364 61.427,279.366 61.4432,279.367 61.4594,279.366 61.4757,279.365 61.4919,279.374 61.5081,279.363 61.5244,279.369 61.5406,279.367 61.5568,279.365 61.573,279.363 61.5892,279.37 61.6055,279.368 61.6217,279.363 61.6379,279.365 61.6541,279.369 61.6704,279.375 61.6866,279.364 61.7028,279.357" stroke-linejoin="round" stroke="#0071bc" fill="none" stroke-linecap="butt"/>
   <polyline stroke-width="0.5" points="73.644,279.229 73.6602,279.237 73.6764,279.226 73.6926,279.228 73.7089,279.232 73.7251,279.23 73.7413,279.231 73.7575,279.237 73.7738,279.229 73.79,279.229 73.8062,279.225 73.8224,279.225 73.8387,279.221 73.8549,279.225 73.8711,279.23 73.8873,279.227 73.9035,279.222 73.9198,279.226 73.936,279.227 73.9522,279.226 73.9685,279.223 73.9847,279.219 74.0009,279.221 74.0171,279.217 74.0333,279.221 74.0496,279.219 74.0658,279.225 74.082,279.222 74.0983,279.217 74.1145,279.216 74.1307,279.216 74.1469,279.215 74.1631,279.209" stroke-linejoin="round" stroke="#0071bc" fill="none" stroke-linecap="butt"/>
   <polyline stroke-width="0.5" points="75.7207,279.145 75.7369,279.136 75.7531,279.143 75.7693,279.129 75.7856,279.13 75.8018,279.134 75.818,279.127 75.8343,279.127 75.8505,279.13 75.8667,279.126 75.8829,279.122 75.8992,279.12 75.9154,279.126 75.9316,279.118 75.9478,279.121 75.9641,279.118 75.9803,279.118 75.9965,279.121 76.0127,279.119 76.0289,279.116 76.0452,279.118 76.0614,279.115 76.0776,279.112 76.0938,279.114 76.1101,279.104 76.1263,279.107 76.1425,279.108 76.1588,279.103 76.175,279.103 76.1912,279.106 76.2074,279.103 76.2236,279.088 76.2399,279.1" stroke-linejoin="round" stroke="#0071bc" fill="none" stroke-linecap="butt"/>
   <polyline stroke-width="0.5" points="54.9535,279.377 54.9697,279.382 54.9859,279.382 55.0022,279.377 55.0184,279.379 55.0346,279.376 55.0508,279.372 55.067,279.376 55.0833,279.375 55.0995,279.384 55.1157,279.383 55.1319,279.386 55.1482,279.379 55.1644,279.368 55.1806,279.376 55.1968,279.375 55.2131,279.375 55.2293,279.371 55.2455,279.374 55.2617,279.379 55.278,279.388 55.2942,279.372 55.3104,279.377 55.3266,279.375 55.3428,279.366 55.3591,279.376 55.3753,279.369 55.3915,279.378 55.4078,279.381 55.424,279.36 55.4402,279.372 55.4564,279.385 55.4726,279.377" stroke-linejoin="round" stroke="#0071bc" fill="none" stroke-linecap="butt"/>
   <polyline stroke-width="0.5" points="55.9918,279.374 56.0081,279.371 56.0243,279.378 56.0405,279.374 56.0567,279.385 56.073,279.38 56.0892,279.381 56.1054,279.374 56.1216,279.376 56.1378,279.365 56.1541,279.373 56.1703,279.382 56.1865,279.377 56.2027,279.377 56.219,279.393 56.2352,279.371 56.2514,279.371 56.2676,279.376 56.2839,279.368 56.3001,279.376 56.3163,279.379 56.3325,279.378 56.3488,279.382 56.365,279.372 56.3812,279.373 56.3974,279.381 56.4137,279.391 56.4299,279.371 56.4461,279.377 56.4623,279.382 56.4786,279.37 56.4948,279.383 56.511,279.376" stroke-linejoin="round" stroke="#0071bc" fill="none" stroke-linecap="butt"/>
   <polyline stroke-width="0.5" points="63.2604,279.356 63.2766,279.355 63.2928,279.365 63.309,279.356 63.3253,279.371 63.3415,279.359 63.3577,279.363 63.3739,279.36 63.3902,279.364 63.4064,279.361 63.4226,279.361 63.4388,279.362 63.455,279.356 63.4713,279.349 63.4875,279.358 63.5037,279.357 63.5199,279.36 63.5362,279.358 63.5524,279.357 63.5686,279.361 63.5848,279.362 63.6011,279.358 63.6173,279.358 63.6335,279.358 63.6497,279.359 63.666,279.355 63.6822,279.36 63.6984,279.362 63.7146,279.358 63.7309,279.361 63.7471,279.357 63.7633,279.359 63.7795,279.362" stroke-linejoin="round" stroke="#0071bc" fill="none" stroke-linecap="butt"/>
   <polyline stroke-width="0.5" points="67.4138,279.34 67.43,279.342 67.4462,279.335 67.4625,279.341 67.4787,279.344 67.4949,279.345 67.5112,279.351 67.5274,279.331 67.5436,279.356 67.5598,279.298 67.576,279.317 67.5923,279.331 67.6085,279.324 67.6247,279.328 67.6409,279.329 67.6572,279.339 67.6734,279.333 67.6896,279.332 67.7058,279.33 67.7221,279.336 67.7383,279.331 67.7545,279.325 67.7707,279.334 67.787,279.339 67.8032,279.339 67.8194,279.332 67.8356,279.332 67.8519,279.339 67.8681,279.33 67.8843,279.33 67.9005,279.342 67.9167,279.337 67.933,279.325" stroke-linejoin="round" stroke="#0071bc" fill="none" stroke-linecap="butt"/>
   <polyline stroke-width="0.5" points="68.4521,279.325 68.4684,279.326 68.4846,279.318 68.5008,279.325 68.5171,279.325 68.5333,279.33 68.5495,279.32 68.5657,279.324 68.582,279.323 68.5982,279.33 68.6144,279.324 68.6306,279.323 68.6469,279.323 68.6631,279.329 68.6793,279.326 68.6955,279.327 68.7118,279.321 68.728,279.33 68.7442,279.327 68.7604,279.329 68.7766,279.328 68.7929,279.332 68.8091,279.329 68.8253,279.308 68.8416,279.324 68.8578,279.314 68.874,279.318 68.8902,279.314 68.9064,279.323 68.9227,279.319 68.9389,279.321 68.9551,279.32 68.9713,279.324" stroke-linejoin="round" stroke="#0071bc" fill="none" stroke-linecap="butt"/>
   <polyline stroke-width="0.5" points="69.4905,279.319 69.5067,279.314 69.523,279.321 69.5392,279.318 69.5554,279.318 69.5716,279.318 69.5879,279.314 69.6041,279.315 69.6203,279.317 69.6365,279.317 69.6528,279.318 69.669,279.313 69.6852,279.31 69.7014,279.31 69.7177,279.303 69.7339,279.311 69.7501,279.312 69.7663,279.307 69.7825,279.302 69.7988,279.309 69.815,279.315 69.8312,279.306 69.8475,279.315 69.8637,279.313 69.8799,279.302 69.8961,279.306 69.9124,279.312 69.9286,279.309 69.9448,279.312 69.961,279.307 69.9772,279.309 69.9935,279.306 70.0097,279.309" stroke-linejoin="round" stroke="#0071bc" fill="none" stroke-linecap="butt"/>
   <polyline stroke-width="0.5" points="86.1043,279.234 86.1205,279.238 86.1367,279.238 86.153,279.237 86.1692,279.235 86.1854,279.243 86.2016,279.238 86.2179,279.246 86.2341,279.238 86.2503,279.243 86.2665,279.245 86.2828,279.25 86.299,279.241 86.3152,279.246 86.3314,279.245 86.3477,279.247 86.3639,279.247 86.3801,279.251 86.3963,279.246 86.4126,279.248 86.4288,279.254 86.445,279.255 86.4612,279.25 86.4775,279.249 86.4937,279.251 86.5099,279.26 86.5261,279.253 86.5424,279.261 86.5586,279.25 86.5748,279.252 86.591,279.251 86.6073,279.265 86.6235,279.26" stroke-linejoin="round" stroke="#0071bc" fill="none" stroke-linecap="butt"/>
   <polyline stroke-width="0.5" points="74.6823,279.199 74.6986,279.196 74.7148,279.19 74.731,279.19 74.7472,279.189 74.7634,279.188 74.7797,279.187 74.7959,279.191 74.8121,279.189 74.8284,279.18 74.8446,279.189 74.8608,279.18 74.877,279.188 74.8932,279.179 74.9095,279.185 74.9257,279.178 74.9419,279.184 74.9581,279.181 74.9744,279.179 74.9906,279.173 75.0068,279.183 75.023,279.173 75.0393,279.174 75.0555,279.177 75.0717,279.173 75.0879,279.175 75.1042,279.167 75.1204,279.169 75.1366,279.172 75.1528,279.172 75.1691,279.167 75.1853,279.168 75.2015,279.172" stroke-linejoin="round" stroke="#0071bc" fill="none" stroke-linecap="butt"/>
   <polyline stroke-width="0.5" points="81.9509,278.329 81.9671,278.345 81.9833,278.352 81.9995,278.369 82.0158,278.383 82.032,278.399 82.0482,278.41 82.0644,278.424 82.0806,278.435 82.0969,278.449 82.1131,278.451 82.1293,278.478 82.1455,278.469 82.1618,278.497 82.178,278.495 82.1942,278.512 82.2104,278.528 82.2267,278.532 82.2429,278.542 82.2591,278.555 82.2753,278.561 82.2916,278.569 82.3078,278.582 82.324,278.583 82.3402,278.601 82.3565,278.605 82.3727,278.617 82.3889,278.618 82.4051,278.627 82.4214,278.643 82.4376,278.655 82.4538,278.649 82.47,278.667" stroke-linejoin="round" stroke="#0071bc" fill="none" stroke-linecap="butt"/>
   <polyline stroke-width="0.5" points="79.8741,277.285 79.8904,277.232 79.9066,277.187 79.9228,277.13 79.939,277.071 79.9553,277.017 79.9715,276.952 79.9877,276.89 80.0039,276.82 80.0201,276.747 80.0364,276.668 80.0526,276.592 80.0688,276.503 80.0851,276.419 80.1013,276.318 80.1175,276.216 80.1337,276.099 80.1499,275.977 80.1662,275.864 80.1824,275.722 80.1986,275.573 80.2148,275.421 80.2311,275.246 80.2473,275.052 80.2635,274.848 80.2797,274.632 80.296,274.374 80.3122,274.1 80.3284,273.795 80.3446,273.44 80.3609,273.058 80.3771,272.617 80.3933,272.11" stroke-linejoin="round" stroke="#0071bc" fill="none" stroke-linecap="butt"/>
   <polyline stroke-width="0.5" points="62.222,279.368 62.2382,279.364 62.2544,279.362 62.2707,279.363 62.2869,279.363 62.3031,279.365 62.3193,279.357 62.3356,279.368 62.3518,279.363 62.368,279.369 62.3842,279.362 62.4005,279.361 62.4167,279.368 62.4329,279.356 62.4491,279.36 62.4654,279.366 62.4816,279.362 62.4978,279.359 62.514,279.361 62.5303,279.362 62.5465,279.355 62.5627,279.36 62.5789,279.366 62.5952,279.367 62.6114,279.365 62.6276,279.365 62.6438,279.365 62.66,279.364 62.6763,279.359 62.6925,279.368 62.7087,279.364 62.725,279.37 62.7412,279.36" stroke-linejoin="round" stroke="#0071bc" fill="none" stroke-linecap="butt"/>
   <polyline stroke-width="0.5" points="88.181,279.307 88.1972,279.319 88.2135,279.32 88.2297,279.316 88.2459,279.321 88.2621,279.311 88.2784,279.314 88.2946,279.319 88.3108,279.318 88.327,279.315 88.3433,279.316 88.3595,279.324 88.3757,279.325 88.3919,279.323 88.4082,279.321 88.4244,279.324 88.4406,279.321 88.4568,279.322 88.4731,279.319 88.4893,279.32 88.5055,279.322 88.5217,279.325 88.5379,279.33 88.5542,279.325 88.5704,279.326 88.5866,279.323 88.6029,279.322 88.6191,279.32 88.6353,279.325 88.6515,279.332 88.6678,279.323 88.684,279.337 88.7002,279.327" stroke-linejoin="round" stroke="#0071bc" fill="none" stroke-linecap="butt"/>
   <polyline stroke-width="0.5" points="92.3345,279.382 92.3507,279.384 92.3669,279.382 92.3831,279.384 92.3994,279.383 92.4156,279.382 92.4318,279.412 92.448,279.394 92.4642,279.394 92.4805,279.391 92.4967,279.39 92.5129,279.385 92.5292,279.392 92.5454,279.388 92.5616,279.39 92.5778,279.393 92.594,279.391 92.6103,279.391 92.6265,279.396 92.6427,279.386 92.6589,279.391 92.6752,279.392 92.6914,279.391 92.7076,279.391 92.7238,279.397 92.7401,279.389 92.7563,279.393 92.7725,279.385 92.7887,279.394 92.805,279.392 92.8212,279.397 92.8374,279.393 92.8536,279.4" stroke-linejoin="round" stroke="#0071bc" fill="none" stroke-linecap="butt"/>
   <polyline stroke-width="0.5" points="80.9125,274.186 80.9287,274.455 80.9449,274.706 80.9612,274.922 80.9774,275.128 80.9936,275.313 81.0098,275.489 81.0261,275.641 81.0423,275.794 81.0585,275.933 81.0747,276.057 81.091,276.167 81.1072,276.288 81.1234,276.383 81.1396,276.482 81.1559,276.574 81.1721,276.656 81.1883,276.732 81.2045,276.815 81.2207,276.884 81.237,276.955 81.2532,277.021 81.2694,277.082 81.2857,277.144 81.3019,277.199 81.3181,277.249 81.3343,277.305 81.3505,277.351 81.3668,277.404 81.383,277.445 81.3992,277.489 81.4154,277.526 81.4317,277.571" stroke-linejoin="round" stroke="#0071bc" fill="none" stroke-linecap="butt"/>
   <polyline stroke-width="0.5" points="94.4112,279.404 94.4274,279.406 94.4436,279.413 94.4599,279.406 94.4761,279.41 94.4923,279.405 94.5085,279.404 94.5247,279.409 94.541,279.407 94.5572,279.41 94.5734,279.412 94.5897,279.408 94.6059,279.408 94.6221,279.413 94.6383,279.406 94.6545,279.406 94.6708,279.413 94.687,279.414 94.7032,279.409 94.7194,279.409 94.7357,279.413 94.7519,279.415 94.7681,279.369 94.7843,279.396 94.8006,279.408 94.8168,279.413 94.833,279.407 94.8492,279.402 94.8655,279.409 94.8817,279.41 94.8979,279.412 94.9141,279.409 94.9304,279.416" stroke-linejoin="round" stroke="#0071bc" fill="none" stroke-linecap="butt"/>
   <polyline stroke-width="0.5" points="93.3728,279.398 93.389,279.393 93.4053,279.397 93.4215,279.399 93.4377,279.394 93.4539,279.397 93.4702,279.391 93.4864,279.4 93.5026,279.4 93.5188,279.397 93.5351,279.394 93.5513,279.394 93.5675,279.409 93.5837,279.399 93.6,279.402 93.6162,279.399 93.6324,279.399 93.6486,279.4 93.6649,279.401 93.6811,279.391 93.6973,279.391 93.7135,279.402 93.7298,279.4 93.746,279.398 93.7622,279.402 93.7784,279.393 93.7947,279.417 93.8109,279.4 93.8271,279.394 93.8433,279.405 93.8596,279.396 93.8758,279.404 93.892,279.406" stroke-linejoin="round" stroke="#0071bc" fill="none" stroke-linecap="butt"/>
   <polyline stroke-width="0.5" points="87.1427,279.28 87.1589,279.278 87.1751,279.279 87.1913,279.286 87.2076,279.28 87.2238,279.283 87.24,279.278 87.2562,279.284 87.2725,279.284 87.2887,279.281 87.3049,279.284 87.3211,279.286 87.3373,279.29 87.3536,279.285 87.3698,279.287 87.386,279.288 87.4022,279.295 87.4185,279.293 87.4347,279.291 87.4509,279.293 87.4671,279.293 87.4834,279.292 87.4996,279.295 87.5158,279.297 87.532,279.292 87.5483,279.297 87.5645,279.294 87.5807,279.298 87.5969,279.294 87.6132,279.301 87.6294,279.296 87.6456,279.298 87.6618,279.293" stroke-linejoin="round" stroke="#0071bc" fill="none" stroke-linecap="butt"/>
  </g>
 </g>
</svg>
