<?xml version='1.0' encoding='UTF-8' standalone='no'?>
<svg viewBox="0 0 284 211" xmlns:xlink="http://www.w3.org/1999/xlink" width="284pt" height="211pt" xmlns="http://www.w3.org/2000/svg">
 <title>Figure 1</title>
 <desc>
Creator: GL2PS 1.4.2, (C) 1999-2020 C. Geuzaine
For: Octave
CreationDate: Sat Aug 12 17:17:28 2023
</desc>
 <defs/>
 <polygon points="0,0 284,0 284,211 0,211" fill="#ffffff"/>
 <g>
  <polygon points="0,211 284,211 284,0 0,0" shape-rendering="crispEdges" fill="#ffffff"/>
  <clipPath id="cp00284211">
   <polygon points="0,211 284,211 284,0 0,0"/>
  </clipPath>
  <g clip-path="url(#cp00284211)">
   <polygon points="37.0209,179.03 257.723,179.03 257.723,22 37.0209,22" shape-rendering="crispEdges" fill="#ffffff"/>
   <polyline stroke="#262626" stroke-linejoin="miter" points="37.0209,179.03 37.0209,176.823" stroke-width="0.5" fill="none" stroke-linecap="butt"/>
   <polyline stroke="#262626" stroke-linejoin="miter" points="37.0209,22 37.0209,24.2074" stroke-width="0.5" fill="none" stroke-linecap="butt"/>
   <polyline stroke="#262626" stroke-linejoin="miter" points="81.1613,179.03 81.1613,176.823" stroke-width="0.5" fill="none" stroke-linecap="butt"/>
   <polyline stroke="#262626" stroke-linejoin="miter" points="81.1613,22 81.1613,24.2074" stroke-width="0.5" fill="none" stroke-linecap="butt"/>
   <polyline stroke="#262626" stroke-linejoin="miter" points="125.302,179.03 125.302,176.823" stroke-width="0.5" fill="none" stroke-linecap="butt"/>
   <polyline stroke="#262626" stroke-linejoin="miter" points="125.302,22 125.302,24.2074" stroke-width="0.5" fill="none" stroke-linecap="butt"/>
   <polyline stroke="#262626" stroke-linejoin="miter" points="169.442,179.03 169.442,176.823" stroke-width="0.5" fill="none" stroke-linecap="butt"/>
   <polyline stroke="#262626" stroke-linejoin="miter" points="169.442,22 169.442,24.2074" stroke-width="0.5" fill="none" stroke-linecap="butt"/>
   <polyline stroke="#262626" stroke-linejoin="miter" points="213.582,179.03 213.582,176.823" stroke-width="0.5" fill="none" stroke-linecap="butt"/>
   <polyline stroke="#262626" stroke-linejoin="miter" points="213.582,22 213.582,24.2074" stroke-width="0.5" fill="none" stroke-linecap="butt"/>
   <polyline stroke="#262626" stroke-linejoin="miter" points="257.723,179.03 257.723,176.823" stroke-width="0.5" fill="none" stroke-linecap="butt"/>
   <polyline stroke="#262626" stroke-linejoin="miter" points="257.723,22 257.723,24.2074" stroke-width="0.5" fill="none" stroke-linecap="butt"/>
   <g font-family="FreeSans" font-style="normal" font-weight="normal" transform="translate(34.0209,194.532) rotate(-0,3,-8)" font-size="10" xml:space="preserve">
    <text y="-0" x="0 " fill="rgb(38,38,38)">0</text>
   </g>
   <g font-family="FreeSans" font-style="normal" font-weight="normal" transform="translate(63.1613,194.532) rotate(-0,18,-8)" font-size="10" xml:space="preserve">
    <text y="-0" x="0 6 12 18 24 30 " fill="rgb(38,38,38)">500000</text>
   </g>
   <g font-family="FreeSans" font-style="normal" font-weight="normal" transform="translate(110.802,194.532) rotate(-0,14.5,-8)" font-size="10" xml:space="preserve">
    <text y="-0" x="0 6 11 17 23 " fill="rgb(38,38,38)">1e+06</text>
   </g>
   <g font-family="FreeSans" font-style="normal" font-weight="normal" transform="translate(150.442,194.532) rotate(-0,19,-8)" font-size="10" xml:space="preserve">
    <text y="-0" x="0 6 9 15 20 26 32 " fill="rgb(38,38,38)">1.5e+06</text>
   </g>
   <g font-family="FreeSans" font-style="normal" font-weight="normal" transform="translate(199.082,194.532) rotate(-0,14.5,-8)" font-size="10" xml:space="preserve">
    <text y="-0" x="0 6 11 17 23 " fill="rgb(38,38,38)">2e+06</text>
   </g>
   <g font-family="FreeSans" font-style="normal" font-weight="normal" transform="translate(238.723,194.532) rotate(-0,19,-8)" font-size="10" xml:space="preserve">
    <text y="-0" x="0 6 9 15 20 26 32 " fill="rgb(38,38,38)">2.5e+06</text>
   </g>
   <polyline stroke="#262626" stroke-linejoin="miter" points="37.0209,179.03 39.225,179.03" stroke-width="0.5" fill="none" stroke-linecap="butt"/>
   <polyline stroke="#262626" stroke-linejoin="miter" points="257.723,179.03 255.519,179.03" stroke-width="0.5" fill="none" stroke-linecap="butt"/>
   <polyline stroke="#262626" stroke-linejoin="miter" points="37.0209,156.597 39.225,156.597" stroke-width="0.5" fill="none" stroke-linecap="butt"/>
   <polyline stroke="#262626" stroke-linejoin="miter" points="257.723,156.597 255.519,156.597" stroke-width="0.5" fill="none" stroke-linecap="butt"/>
   <polyline stroke="#262626" stroke-linejoin="miter" points="37.0209,134.164 39.225,134.164" stroke-width="0.5" fill="none" stroke-linecap="butt"/>
   <polyline stroke="#262626" stroke-linejoin="miter" points="257.723,134.164 255.519,134.164" stroke-width="0.5" fill="none" stroke-linecap="butt"/>
   <polyline stroke="#262626" stroke-linejoin="miter" points="37.0209,111.732 39.225,111.732" stroke-width="0.5" fill="none" stroke-linecap="butt"/>
   <polyline stroke="#262626" stroke-linejoin="miter" points="257.723,111.732 255.519,111.732" stroke-width="0.5" fill="none" stroke-linecap="butt"/>
   <polyline stroke="#262626" stroke-linejoin="miter" points="37.0209,89.2987 39.225,89.2987" stroke-width="0.5" fill="none" stroke-linecap="butt"/>
   <polyline stroke="#262626" stroke-linejoin="miter" points="257.723,89.2987 255.519,89.2987" stroke-width="0.5" fill="none" stroke-linecap="butt"/>
   <polyline stroke="#262626" stroke-linejoin="miter" points="37.0209,66.8658 39.225,66.8658" stroke-width="0.5" fill="none" stroke-linecap="butt"/>
   <polyline stroke="#262626" stroke-linejoin="miter" points="257.723,66.8658 255.519,66.8658" stroke-width="0.5" fill="none" stroke-linecap="butt"/>
   <polyline stroke="#262626" stroke-linejoin="miter" points="37.0209,44.4329 39.225,44.4329" stroke-width="0.5" fill="none" stroke-linecap="butt"/>
   <polyline stroke="#262626" stroke-linejoin="miter" points="257.723,44.4329 255.519,44.4329" stroke-width="0.5" fill="none" stroke-linecap="butt"/>
   <polyline stroke="#262626" stroke-linejoin="miter" points="37.0209,22 39.225,22" stroke-width="0.5" fill="none" stroke-linecap="butt"/>
   <polyline stroke="#262626" stroke-linejoin="miter" points="257.723,22 255.519,22" stroke-width="0.5" fill="none" stroke-linecap="butt"/>
   <g font-family="FreeSans" font-style="normal" font-weight="normal" transform="translate(26.0277,183.03) rotate(-0,6,-4)" font-size="10" xml:space="preserve">
    <text y="-0" x="0 " fill="rgb(38,38,38)">0</text>
   </g>
   <g font-family="FreeSans" font-style="normal" font-weight="normal" transform="translate(17.0277,160.597) rotate(-0,15,-4)" font-size="10" xml:space="preserve">
    <text y="-0" x="0 6 9 " fill="rgb(38,38,38)">0.1</text>
   </g>
   <g font-family="FreeSans" font-style="normal" font-weight="normal" transform="translate(17.0277,138.164) rotate(-0,15,-4)" font-size="10" xml:space="preserve">
    <text y="-0" x="0 6 9 " fill="rgb(38,38,38)">0.2</text>
   </g>
   <g font-family="FreeSans" font-style="normal" font-weight="normal" transform="translate(17.0277,115.732) rotate(-0,15,-4)" font-size="10" xml:space="preserve">
    <text y="-0" x="0 6 9 " fill="rgb(38,38,38)">0.3</text>
   </g>
   <g font-family="FreeSans" font-style="normal" font-weight="normal" transform="translate(17.0277,93.2987) rotate(-0,15,-4)" font-size="10" xml:space="preserve">
    <text y="-0" x="0 6 9 " fill="rgb(38,38,38)">0.4</text>
   </g>
   <g font-family="FreeSans" font-style="normal" font-weight="normal" transform="translate(17.0277,70.8658) rotate(-0,15,-4)" font-size="10" xml:space="preserve">
    <text y="-0" x="0 6 9 " fill="rgb(38,38,38)">0.5</text>
   </g>
   <g font-family="FreeSans" font-style="normal" font-weight="normal" transform="translate(17.0277,48.4329) rotate(-0,15,-4)" font-size="10" xml:space="preserve">
    <text y="-0" x="0 6 9 " fill="rgb(38,38,38)">0.6</text>
   </g>
   <g font-family="FreeSans" font-style="normal" font-weight="normal" transform="translate(17.0277,26) rotate(-0,15,-4)" font-size="10" xml:space="preserve">
    <text y="-0" x="0 6 9 " fill="rgb(38,38,38)">0.7</text>
   </g>
   <polyline stroke="#262626" stroke-linejoin="miter" points="37.0209,179.03 257.723,179.03" stroke-width="0.5" fill="none" stroke-linecap="square" stroke-dasharray="16,0"/>
   <polyline stroke="#262626" stroke-linejoin="miter" points="37.0209,22 257.723,22" stroke-width="0.5" fill="none" stroke-linecap="square" stroke-dasharray="16,0"/>
   <polyline stroke="#262626" stroke-linejoin="miter" points="37.0209,179.03 37.0209,22" stroke-width="0.5" fill="none" stroke-linecap="square" stroke-dasharray="16,0"/>
   <polyline stroke="#262626" stroke-linejoin="miter" points="257.723,179.03 257.723,22" stroke-width="0.5" fill="none" stroke-linecap="square" stroke-dasharray="16,0"/>
   <g font-family="FreeSans" font-style="normal" font-weight="normal" transform="translate(133.872,211.532) rotate(-0,13.5,-12)" font-size="11" xml:space="preserve">
    <text y="-3" x="0 3 6 10 18 23 " fill="rgb(38,38,38)">f (Hz)</text>
   </g>
   <g font-family="FreeSans" font-style="normal" font-weight="normal" transform="translate(0.0276839,100.515) rotate(-90,12,0)" font-size="11" xml:space="preserve">
    <text y="-3" x="0 3 10 14 17 21 " fill="rgb(38,38,38)">|V(f)|</text>
   </g>
   <g font-family="FreeSans" font-style="normal" font-weight="bold" transform="translate(59.8718,12) rotate(-0,87.5,0)" font-size="11" xml:space="preserve">
    <text y="-3" x="0 7 10 17 24 27 33 37 43 46 53 59 66 69 75 85 92 95 98 102 109 116 122 125 131 138 144 150 154 158 165 " fill="rgb(0,0,0)">Single-sided amplitude spectrum</text>
   </g>
   <polyline stroke="#0071bc" stroke-linejoin="round" points="39.1395,178.959 39.1505,178.952 39.1616,178.951 39.1726,178.954 39.1836,178.948 39.1947,178.953 39.2057,178.946 39.2167,178.954 39.2278,178.949 39.2388,178.959 39.2498,178.951 39.2609,178.956 39.2719,178.952 39.2829,178.946 39.294,178.948 39.305,178.95 39.316,178.955 39.3271,178.951 39.3381,178.953 39.3492,178.952 39.3602,178.949 39.3712,178.951 39.3823,178.957 39.3933,178.951 39.4043,178.955 39.4154,178.955 39.4264,178.957 39.4374,178.958 39.4485,178.954 39.4595,178.958 39.4705,178.953 39.4816,178.953 39.4926,178.956" stroke-width="0.5" fill="none" stroke-linecap="butt"/>
   <polyline stroke="#0071bc" stroke-linejoin="round" points="41.9643,178.943 41.9753,178.947 41.9863,178.949 41.9974,178.947 42.0084,178.949 42.0194,178.947 42.0305,178.949 42.0415,178.948 42.0525,178.95 42.0636,178.953 42.0746,178.947 42.0856,178.949 42.0967,178.945 42.1077,178.948 42.1187,178.948 42.1298,178.946 42.1408,178.95 42.1518,178.945 42.1629,178.948 42.1739,178.945 42.185,178.944 42.196,178.952 42.207,178.947 42.2181,178.947 42.2291,178.948 42.2401,178.949 42.2512,178.947 42.2622,178.949 42.2732,178.948 42.2843,178.949 42.2953,178.948 42.3063,178.947 42.3174,178.95" stroke-width="0.5" fill="none" stroke-linecap="butt"/>
   <polyline stroke="#0071bc" stroke-linejoin="round" points="49.7324,178.876 49.7434,178.875 49.7545,178.881 49.7655,178.875 49.7765,178.876 49.7876,178.876 49.7986,178.875 49.8096,178.873 49.8207,178.874 49.8317,178.872 49.8427,178.877 49.8538,178.871 49.8648,178.874 49.8758,178.873 49.8869,178.872 49.8979,178.874 49.9089,178.87 49.92,178.87 49.931,178.87 49.942,178.873 49.9531,178.87 49.9641,178.869 49.9751,178.871 49.9862,178.87 49.9972,178.87 50.0082,178.874 50.0193,178.867 50.0303,178.869 50.0414,178.874 50.0524,178.867 50.0634,178.864 50.0745,178.869 50.0855,178.864" stroke-width="0.5" fill="none" stroke-linecap="butt"/>
   <polyline stroke="#0071bc" stroke-linejoin="round" points="44.789,178.94 44.8001,178.941 44.8111,178.938 44.8221,178.934 44.8332,178.938 44.8442,178.938 44.8552,178.936 44.8663,178.935 44.8773,178.941 44.8884,178.936 44.8994,178.938 44.9104,178.937 44.9215,178.937 44.9325,178.937 44.9435,178.935 44.9546,178.938 44.9656,178.939 44.9766,178.934 44.9877,178.934 44.9987,178.936 45.0097,178.939 45.0208,178.937 45.0318,178.933 45.0428,178.94 45.0539,178.937 45.0649,178.936 45.0759,178.933 45.087,178.934 45.098,178.936 45.109,178.933 45.1201,178.938 45.1311,178.94 45.1421,178.933" stroke-width="0.5" fill="none" stroke-linecap="butt"/>
   <polyline stroke="#0071bc" stroke-linejoin="round" points="39.8457,178.952 39.8567,178.949 39.8678,178.956 39.8788,178.956 39.8898,178.952 39.9009,178.956 39.9119,178.951 39.9229,178.954 39.934,178.95 39.945,178.948 39.956,178.958 39.9671,178.949 39.9781,178.954 39.9891,178.956 40.0002,178.953 40.0112,178.957 40.0222,178.948 40.0333,178.951 40.0443,178.949 40.0553,178.953 40.0664,178.953 40.0774,178.955 40.0884,178.956 40.0995,178.957 40.1105,178.949 40.1215,178.95 40.1326,178.956 40.1436,178.954 40.1546,178.955 40.1657,178.959 40.1767,178.95 40.1878,178.951 40.1988,178.953" stroke-width="0.5" fill="none" stroke-linecap="butt"/>
   <polyline stroke="#0071bc" stroke-linejoin="round" points="43.3767,178.946 43.3877,178.945 43.3987,178.946 43.4098,178.947 43.4208,178.942 43.4318,178.947 43.4429,178.943 43.4539,178.945 43.4649,178.941 43.476,178.945 43.487,178.942 43.498,178.941 43.5091,178.941 43.5201,178.942 43.5311,178.945 43.5422,178.942 43.5532,178.943 43.5642,178.941 43.5753,178.942 43.5863,178.942 43.5973,178.942 43.6084,178.939 43.6194,178.945 43.6304,178.94 43.6415,178.943 43.6525,178.943 43.6635,178.942 43.6746,178.941 43.6856,178.945 43.6966,178.942 43.7077,178.946 43.7187,178.943 43.7298,178.945" stroke-width="0.5" fill="none" stroke-linecap="butt"/>
   <polyline stroke="#0071bc" stroke-linejoin="round" points="38.4333,178.954 38.4443,178.96 38.4554,178.958 38.4664,178.957 38.4774,178.954 38.4885,178.96 38.4995,178.959 38.5105,178.952 38.5216,178.951 38.5326,178.957 38.5436,178.955 38.5547,178.958 38.5657,178.959 38.5768,178.96 38.5878,178.954 38.5988,178.953 38.6099,178.95 38.6209,178.949 38.6319,178.953 38.643,178.953 38.654,178.954 38.665,178.954 38.6761,178.955 38.6871,178.957 38.6981,178.956 38.7092,178.952 38.7202,178.958 38.7312,178.948 38.7423,178.959 38.7533,178.958 38.7643,178.951 38.7754,178.955 38.7864,178.953" stroke-width="0.5" fill="none" stroke-linecap="butt"/>
   <polyline stroke="#0071bc" stroke-linejoin="round" points="37.7271,178.955 37.7382,178.952 37.7492,178.955 37.7602,178.957 37.7712,178.957 37.7823,178.956 37.7933,178.954 37.8044,178.952 37.8154,178.954 37.8264,178.952 37.8375,178.956 37.8485,178.951 37.8595,178.955 37.8706,178.951 37.8816,178.952 37.8926,178.95 37.9037,178.949 37.9147,178.954 37.9257,178.96 37.9368,178.959 37.9478,178.951 37.9588,178.96 37.9699,178.961 37.9809,178.959 37.9919,178.954 38.003,178.956 38.014,178.955 38.025,178.958 38.0361,178.951 38.0471,178.956 38.0581,178.954 38.0692,178.954 38.0802,178.953" stroke-width="0.5" fill="none" stroke-linecap="butt"/>
   <polyline stroke="#0071bc" stroke-linejoin="round" points="37.0209,174.865 37.032,178.954 37.043,178.952 37.054,178.958 37.0651,178.955 37.0761,178.956 37.0871,178.955 37.0982,178.956 37.1092,178.956 37.1202,178.953 37.1313,178.956 37.1423,178.956 37.1533,178.958 37.1644,178.952 37.1754,178.957 37.1864,178.955 37.1975,178.954 37.2085,178.954 37.2195,178.959 37.2306,178.954 37.2416,178.957 37.2526,178.955 37.2637,178.957 37.2747,178.958 37.2857,178.956 37.2968,178.955 37.3078,178.959 37.3188,178.958 37.3299,178.959 37.3409,178.957 37.352,178.955 37.363,178.95 37.374,178.955" stroke-width="0.5" fill="none" stroke-linecap="butt"/>
   <polyline stroke="#0071bc" stroke-linejoin="round" points="40.5519,178.956 40.5629,178.953 40.574,178.954 40.585,178.951 40.596,178.949 40.6071,178.953 40.6181,178.95 40.6291,178.951 40.6402,178.95 40.6512,178.95 40.6622,178.949 40.6733,178.953 40.6843,178.949 40.6953,178.953 40.7064,178.949 40.7174,178.95 40.7284,178.951 40.7395,178.946 40.7505,178.953 40.7615,178.95 40.7726,178.952 40.7836,178.946 40.7946,178.948 40.8057,178.954 40.8167,178.951 40.8277,178.951 40.8388,178.949 40.8498,178.951 40.8608,178.951 40.8719,178.954 40.8829,178.953 40.894,178.953 40.905,178.949" stroke-width="0.5" fill="none" stroke-linecap="butt"/>
   <polyline stroke="#0071bc" stroke-linejoin="round" points="48.32,178.906 48.331,178.905 48.3421,178.906 48.3531,178.903 48.3641,178.901 48.3752,178.905 48.3862,178.901 48.3972,178.905 48.4083,178.907 48.4193,178.905 48.4304,178.905 48.4414,178.902 48.4524,178.902 48.4634,178.905 48.4745,178.902 48.4855,178.901 48.4966,178.897 48.5076,178.905 48.5186,178.899 48.5297,178.9 48.5407,178.898 48.5517,178.902 48.5628,178.897 48.5738,178.903 48.5848,178.9 48.5959,178.898 48.6069,178.897 48.6179,178.9 48.629,178.897 48.64,178.897 48.651,178.898 48.6621,178.901 48.6731,178.899" stroke-width="0.5" fill="none" stroke-linecap="butt"/>
   <polyline stroke="#0071bc" stroke-linejoin="round" points="51.851,178.786 51.862,178.782 51.873,178.782 51.8841,178.783 51.8951,178.775 51.9061,178.779 51.9172,178.777 51.9282,178.78 51.9392,178.776 51.9503,178.776 51.9613,178.769 51.9723,178.774 51.9834,178.774 51.9944,178.771 52.0054,178.77 52.0165,178.77 52.0275,178.77 52.0386,178.771 52.0496,178.771 52.0606,178.768 52.0717,178.768 52.0827,178.765 52.0937,178.763 52.1048,178.766 52.1158,178.763 52.1268,178.763 52.1379,178.76 52.1489,178.759 52.1599,178.758 52.171,178.758 52.182,178.757 52.193,178.756 52.2041,178.755" stroke-width="0.5" fill="none" stroke-linecap="butt"/>
   <polyline stroke="#0071bc" stroke-linejoin="round" points="51.1448,178.83 51.1558,178.825 51.1668,178.823 51.1779,178.824 51.1889,178.823 51.1999,178.826 51.211,178.825 51.222,178.817 51.233,178.825 51.2441,178.823 51.2551,178.824 51.2661,178.823 51.2772,178.819 51.2882,178.82 51.2993,178.818 51.3103,178.818 51.3213,178.817 51.3324,178.819 51.3434,178.813 51.3544,178.811 51.3655,178.817 51.3765,178.813 51.3875,178.816 51.3986,178.815 51.4096,178.815 51.4206,178.815 51.4317,178.815 51.4427,178.813 51.4537,178.809 51.4648,178.808 51.4758,178.808 51.4868,178.807 51.4979,178.813" stroke-width="0.5" fill="none" stroke-linecap="butt"/>
   <polyline stroke="#0071bc" stroke-linejoin="round" points="46.2014,178.923 46.2125,178.928 46.2235,178.926 46.2345,178.928 46.2456,178.924 46.2566,178.931 46.2676,178.922 46.2787,178.926 46.2897,178.926 46.3007,178.929 46.3118,178.926 46.3228,178.925 46.3338,178.924 46.3449,178.926 46.3559,178.924 46.3669,178.929 46.378,178.93 46.389,178.925 46.4,178.926 46.4111,178.924 46.4221,178.926 46.4332,178.93 46.4442,178.928 46.4552,178.928 46.4662,178.926 46.4773,178.922 46.4883,178.927 46.4994,178.927 46.5104,178.924 46.5214,178.925 46.5325,178.925 46.5435,178.925 46.5545,178.923" stroke-width="0.5" fill="none" stroke-linecap="butt"/>
   <polyline stroke="#0071bc" stroke-linejoin="round" points="45.4952,178.933 45.5063,178.934 45.5173,178.937 45.5283,178.938 45.5394,178.934 45.5504,178.932 45.5614,178.929 45.5725,178.937 45.5835,178.936 45.5945,178.93 45.6056,178.934 45.6166,178.932 45.6276,178.931 45.6387,178.93 45.6497,178.935 45.6607,178.934 45.6718,178.931 45.6828,178.929 45.6938,178.931 45.7049,178.929 45.7159,178.926 45.727,178.931 45.738,178.93 45.749,178.931 45.76,178.931 45.7711,178.934 45.7821,178.934 45.7932,178.935 45.8042,178.93 45.8152,178.93 45.8263,178.935 45.8373,178.931 45.8483,178.933" stroke-width="0.5" fill="none" stroke-linecap="butt"/>
   <polyline stroke="#0071bc" stroke-linejoin="round" points="49.0262,178.894 49.0372,178.894 49.0483,178.891 49.0593,178.89 49.0703,178.894 49.0814,178.893 49.0924,178.892 49.1034,178.893 49.1145,178.894 49.1255,178.889 49.1365,178.895 49.1476,178.891 49.1586,178.889 49.1696,178.886 49.1807,178.888 49.1917,178.887 49.2027,178.892 49.2138,178.89 49.2248,178.892 49.2358,178.889 49.2469,178.889 49.2579,178.887 49.2689,178.896 49.28,178.881 49.291,178.885 49.302,178.884 49.3131,178.893 49.3241,178.888 49.3352,178.882 49.3462,178.886 49.3572,178.885 49.3683,178.886 49.3793,178.886" stroke-width="0.5" fill="none" stroke-linecap="butt"/>
   <polyline stroke="#0071bc" stroke-linejoin="round" points="44.0828,178.942 44.0939,178.94 44.1049,178.938 44.1159,178.938 44.127,178.942 44.138,178.944 44.1491,178.944 44.1601,178.943 44.1711,178.939 44.1822,178.941 44.1932,178.942 44.2042,178.941 44.2153,178.939 44.2263,178.938 44.2373,178.939 44.2484,178.935 44.2594,178.939 44.2704,178.938 44.2815,178.937 44.2925,178.943 44.3035,178.939 44.3146,178.943 44.3256,178.938 44.3366,178.94 44.3477,178.938 44.3587,178.938 44.3697,178.939 44.3808,178.939 44.3918,178.94 44.4028,178.937 44.4139,178.94 44.4249,178.939 44.436,178.938" stroke-width="0.5" fill="none" stroke-linecap="butt"/>
   <polyline stroke="#0071bc" stroke-linejoin="round" points="47.6138,178.913 47.6248,178.914 47.6359,178.913 47.6469,178.912 47.6579,178.914 47.669,178.913 47.68,178.912 47.691,178.915 47.7021,178.911 47.7131,178.911 47.7242,178.913 47.7352,178.909 47.7462,178.912 47.7573,178.909 47.7683,178.909 47.7793,178.914 47.7904,178.915 47.8014,178.912 47.8124,178.912 47.8235,178.912 47.8345,178.913 47.8455,178.908 47.8566,178.913 47.8676,178.911 47.8786,178.908 47.8897,178.911 47.9007,178.911 47.9117,178.909 47.9228,178.912 47.9338,178.908 47.9448,178.911 47.9559,178.909 47.9669,178.908" stroke-width="0.5" fill="none" stroke-linecap="butt"/>
   <polyline stroke="#0071bc" stroke-linejoin="round" points="42.6705,178.945 42.6815,178.946 42.6925,178.944 42.7036,178.945 42.7146,178.946 42.7256,178.945 42.7367,178.945 42.7477,178.948 42.7587,178.944 42.7698,178.947 42.7808,178.949 42.7918,178.946 42.8029,178.947 42.8139,178.945 42.8249,178.946 42.836,178.941 42.847,178.946 42.858,178.948 42.8691,178.942 42.8801,178.945 42.8912,178.943 42.9022,178.948 42.9132,178.942 42.9243,178.943 42.9353,178.946 42.9463,178.942 42.9574,178.944 42.9684,178.946 42.9794,178.951 42.9905,178.946 43.0015,178.949 43.0125,178.945 43.0236,178.942" stroke-width="0.5" fill="none" stroke-linecap="butt"/>
   <polyline stroke="#0071bc" stroke-linejoin="round" points="41.2581,178.949 41.2691,178.948 41.2801,178.95 41.2912,178.949 41.3022,178.952 41.3132,178.955 41.3243,178.948 41.3353,178.952 41.3464,178.954 41.3574,178.945 41.3684,178.953 41.3795,178.949 41.3905,178.952 41.4015,178.951 41.4126,178.951 41.4236,178.949 41.4346,178.947 41.4457,178.949 41.4567,178.948 41.4677,178.952 41.4788,178.948 41.4898,178.947 41.5008,178.948 41.5119,178.95 41.5229,178.948 41.5339,178.951 41.545,178.954 41.556,178.95 41.567,178.948 41.5781,178.947 41.5891,178.953 41.6001,178.949 41.6112,178.949" stroke-width="0.5" fill="none" stroke-linecap="butt"/>
   <polyline stroke="#0071bc" stroke-linejoin="round" points="53.2634,178.579 53.2744,178.576 53.2854,178.572 53.2965,178.572 53.3075,178.567 53.3185,178.565 53.3296,178.56 53.3406,178.556 53.3516,178.555 53.3627,178.549 53.3737,178.547 53.3847,178.544 53.3958,178.537 53.4068,178.54 53.4178,178.532 53.4289,178.529 53.4399,178.527 53.4509,178.524 53.462,178.518 53.473,178.515 53.484,178.512 53.4951,178.504 53.5061,178.5 53.5171,178.494 53.5282,178.493 53.5392,178.491 53.5502,178.487 53.5613,178.478 53.5723,178.469 53.5833,178.47 53.5944,178.466 53.6054,178.459 53.6165,178.454" stroke-width="0.5" fill="none" stroke-linecap="butt"/>
   <polyline stroke="#0071bc" stroke-linejoin="round" points="50.4386,178.852 50.4496,178.855 50.4606,178.857 50.4717,178.855 50.4827,178.855 50.4938,178.855 50.5048,178.852 50.5158,178.849 50.5269,178.847 50.5379,178.855 50.5489,178.852 50.56,178.855 50.571,178.857 50.582,178.848 50.5931,178.848 50.6041,178.848 50.6151,178.851 50.6262,178.849 50.6372,178.85 50.6482,178.849 50.6593,178.85 50.6703,178.849 50.6813,178.847 50.6924,178.843 50.7034,178.845 50.7144,178.847 50.7255,178.84 50.7365,178.845 50.7475,178.845 50.7586,178.842 50.7696,178.845 50.7806,178.843 50.7917,178.846" stroke-width="0.5" fill="none" stroke-linecap="butt"/>
   <polyline stroke="#0071bc" stroke-linejoin="round" points="46.9076,178.923 46.9187,178.921 46.9297,178.92 46.9407,178.921 46.9518,178.92 46.9628,178.919 46.9738,178.923 46.9849,178.923 46.9959,178.917 47.0069,178.918 47.018,178.923 47.029,178.915 47.04,178.92 47.0511,178.92 47.0621,178.922 47.0731,178.92 47.0842,178.918 47.0952,178.92 47.1062,178.918 47.1173,178.92 47.1283,178.919 47.1393,178.917 47.1504,178.919 47.1614,178.918 47.1724,178.92 47.1835,178.916 47.1945,178.917 47.2055,178.913 47.2166,178.915 47.2276,178.919 47.2386,178.915 47.2497,178.919 47.2607,178.92" stroke-width="0.5" fill="none" stroke-linecap="butt"/>
   <polyline stroke="#0071bc" stroke-linejoin="round" points="52.5572,178.716 52.5682,178.713 52.5792,178.715 52.5903,178.711 52.6013,178.709 52.6123,178.71 52.6234,178.703 52.6344,178.701 52.6454,178.701 52.6565,178.697 52.6675,178.701 52.6785,178.697 52.6896,178.693 52.7006,178.69 52.7116,178.69 52.7227,178.686 52.7337,178.693 52.7447,178.69 52.7558,178.686 52.7668,178.685 52.7778,178.678 52.7889,178.679 52.7999,178.675 52.8109,178.676 52.822,178.675 52.833,178.673 52.844,178.672 52.8551,178.67 52.8661,178.663 52.8772,178.667 52.8882,178.666 52.8992,178.659 52.9103,178.66" stroke-width="0.5" fill="none" stroke-linecap="butt"/>
   <polyline stroke="#0071bc" stroke-linejoin="round" points="61.7377,178.951 61.7487,178.948 61.7597,178.95 61.7708,178.946 61.7818,178.944 61.7928,178.941 61.8039,178.967 61.8149,178.955 61.8259,178.955 61.837,178.952 61.848,178.951 61.859,178.955 61.8701,178.953 61.8811,178.948 61.8921,178.95 61.9032,178.949 61.9142,178.952 61.9252,178.953 61.9363,178.952 61.9473,178.95 61.9583,178.955 61.9694,178.951 61.9804,178.951 61.9914,178.952 62.0025,178.951 62.0135,178.954 62.0246,178.954 62.0356,178.954 62.0466,178.954 62.0577,178.953 62.0687,178.953 62.0797,178.956 62.0908,178.952" stroke-width="0.5" fill="none" stroke-linecap="butt"/>
   <polyline stroke="#0071bc" stroke-linejoin="round" points="53.9695,178.227 53.9806,178.218 53.9916,178.201 54.0026,178.193 54.0137,178.18 54.0247,178.17 54.0358,178.159 54.0468,178.149 54.0578,178.135 54.0689,178.12 54.0799,178.111 54.0909,178.095 54.102,178.084 54.113,178.067 54.124,178.053 54.1351,178.037 54.1461,178.021 54.1571,178.004 54.1682,177.994 54.1792,177.967 54.1902,177.957 54.2013,177.935 54.2123,177.91 54.2233,177.895 54.2344,177.88 54.2454,177.85 54.2564,177.834 54.2675,177.805 54.2785,177.783 54.2895,177.756 54.3006,177.729 54.3116,177.703 54.3226,177.672" stroke-width="0.5" fill="none" stroke-linecap="butt"/>
   <polyline stroke="#0071bc" stroke-linejoin="round" points="56.7943,178.708 56.8053,178.709 56.8164,178.708 56.8274,178.71 56.8384,178.716 56.8495,178.717 56.8605,178.717 56.8716,178.72 56.8826,178.722 56.8936,178.724 56.9047,178.728 56.9157,178.724 56.9267,178.731 56.9378,178.727 56.9488,178.726 56.9598,178.735 56.9709,178.731 56.9819,178.743 56.9929,178.737 57.004,178.734 57.015,178.745 57.026,178.741 57.0371,178.745 57.0481,178.744 57.0591,178.745 57.0702,178.752 57.0812,178.751 57.0922,178.753 57.1033,178.752 57.1143,178.76 57.1253,178.76 57.1364,178.753 57.1474,178.76" stroke-width="0.5" fill="none" stroke-linecap="butt"/>
   <polyline stroke="#0071bc" stroke-linejoin="round" points="56.0881,178.52 56.0992,178.527 56.1102,178.529 56.1212,178.532 56.1323,178.536 56.1433,178.541 56.1543,178.542 56.1654,178.55 56.1764,178.547 56.1874,178.56 56.1985,178.562 56.2095,178.563 56.2205,178.568 56.2316,178.574 56.2426,178.574 56.2536,178.58 56.2647,178.585 56.2757,178.584 56.2867,178.593 56.2978,178.588 56.3088,178.595 56.3198,178.599 56.3309,178.604 56.3419,178.605 56.3529,178.609 56.364,178.607 56.375,178.614 56.386,178.616 56.3971,178.62 56.4081,178.624 56.4192,178.627 56.4302,178.634 56.4412,178.636" stroke-width="0.5" fill="none" stroke-linecap="butt"/>
   <polyline stroke="#0071bc" stroke-linejoin="round" points="58.9129,178.884 58.9239,178.881 58.935,178.886 58.946,178.883 58.957,178.883 58.9681,178.888 58.9791,178.883 58.9901,178.887 59.0012,178.888 59.0122,178.888 59.0232,178.889 59.0343,178.886 59.0453,178.887 59.0563,178.886 59.0674,178.891 59.0784,178.893 59.0894,178.889 59.1005,178.887 59.1115,178.893 59.1226,178.89 59.1336,178.896 59.1446,178.889 59.1556,178.897 59.1667,178.892 59.1777,178.888 59.1888,178.893 59.1998,178.896 59.2108,178.889 59.2219,178.896 59.2329,178.894 59.2439,178.892 59.255,178.899 59.266,178.896" stroke-width="0.5" fill="none" stroke-linecap="butt"/>
   <polyline stroke="#0071bc" stroke-linejoin="round" points="55.3819,177.847 55.393,177.874 55.404,177.888 55.415,177.919 55.4261,177.933 55.4371,177.953 55.4481,177.977 55.4592,177.991 55.4702,178.013 55.4812,178.025 55.4923,178.047 55.5033,178.061 55.5143,178.079 55.5254,178.093 55.5364,178.104 55.5474,178.122 55.5585,178.133 55.5695,178.15 55.5806,178.16 55.5916,178.173 55.6026,178.188 55.6136,178.199 55.6247,178.21 55.6357,178.222 55.6468,178.232 55.6578,178.244 55.6688,178.255 55.6799,178.264 55.6909,178.276 55.7019,178.286 55.713,178.294 55.724,178.301 55.735,178.312" stroke-width="0.5" fill="none" stroke-linecap="butt"/>
   <polyline stroke="#0071bc" stroke-linejoin="round" points="60.3253,178.924 60.3363,178.925 60.3473,178.927 60.3584,178.923 60.3694,178.922 60.3804,178.923 60.3915,178.927 60.4025,178.923 60.4136,178.926 60.4246,178.931 60.4356,178.927 60.4466,178.93 60.4577,178.924 60.4687,178.933 60.4798,178.93 60.4908,178.929 60.5018,178.928 60.5129,178.928 60.5239,178.927 60.5349,178.93 60.546,178.93 60.557,178.928 60.568,178.927 60.5791,178.932 60.5901,178.93 60.6011,178.93 60.6122,178.931 60.6232,178.933 60.6342,178.931 60.6453,178.932 60.6563,178.934 60.6673,178.93 60.6784,178.933" stroke-width="0.5" fill="none" stroke-linecap="butt"/>
   <polyline stroke="#0071bc" stroke-linejoin="round" points="62.4439,178.956 62.4549,178.958 62.4659,178.96 62.477,178.959 62.488,178.957 62.499,178.958 62.5101,178.96 62.5211,178.96 62.5321,178.959 62.5432,178.959 62.5542,178.96 62.5652,178.959 62.5763,178.96 62.5873,178.959 62.5983,178.959 62.6094,178.956 62.6204,178.957 62.6314,178.963 62.6425,178.959 62.6535,178.956 62.6645,178.962 62.6756,178.959 62.6866,178.957 62.6976,178.962 62.7087,178.955 62.7197,178.965 62.7308,178.957 62.7418,178.966 62.7528,178.957 62.7639,178.959 62.7749,178.956 62.7859,178.962 62.797,178.958" stroke-width="0.5" fill="none" stroke-linecap="butt"/>
   <polyline stroke="#0071bc" stroke-linejoin="round" points="54.6757,174.497 54.6868,174.133 54.6978,173.709 54.7088,173.201 54.7199,172.583 54.7309,171.83 54.7419,170.868 54.753,169.609 54.764,167.9 54.775,165.401 54.7861,161.487 54.7971,154.399 54.8081,137.619 54.8192,49.661 54.8302,64.2534 54.8412,139.319 54.8523,155.017 54.8633,161.793 54.8744,165.608 54.8854,168.049 54.8964,169.733 54.9075,170.97 54.9185,171.917 54.9295,172.661 54.9406,173.269 54.9516,173.777 54.9626,174.193 54.9737,174.555 54.9847,174.869 54.9957,175.133 55.0068,175.366 55.0178,175.577 55.0288,175.771" stroke-width="0.5" fill="none" stroke-linecap="butt"/>
   <polyline stroke="#0071bc" stroke-linejoin="round" points="61.0315,178.937 61.0425,178.938 61.0535,178.941 61.0646,178.941 61.0756,178.939 61.0866,178.941 61.0977,178.939 61.1087,178.939 61.1198,178.939 61.1308,178.939 61.1418,178.941 61.1528,178.941 61.1639,178.941 61.1749,178.939 61.186,178.941 61.197,178.94 61.208,178.946 61.2191,178.947 61.2301,178.943 61.2411,178.938 61.2522,178.946 61.2632,178.943 61.2742,178.938 61.2853,178.937 61.2963,178.944 61.3073,178.943 61.3184,178.941 61.3294,178.943 61.3404,178.946 61.3515,178.942 61.3625,178.945 61.3735,178.941 61.3846,178.943" stroke-width="0.5" fill="none" stroke-linecap="butt"/>
   <polyline stroke="#0071bc" stroke-linejoin="round" points="57.5005,178.797 57.5115,178.8 57.5226,178.796 57.5336,178.799 57.5446,178.799 57.5557,178.799 57.5667,178.8 57.5778,178.802 57.5888,178.798 57.5998,178.815 57.6109,178.811 57.6219,178.804 57.6329,178.808 57.644,178.813 57.655,178.812 57.666,178.811 57.6771,178.809 57.6881,178.816 57.6991,178.814 57.7102,178.812 57.7212,178.813 57.7322,178.818 57.7433,178.82 57.7543,178.819 57.7653,178.82 57.7764,178.817 57.7874,178.819 57.7984,178.826 57.8095,178.825 57.8205,178.824 57.8315,178.827 57.8426,178.828 57.8536,178.829" stroke-width="0.5" fill="none" stroke-linecap="butt"/>
   <polyline stroke="#0071bc" stroke-linejoin="round" points="59.6191,178.904 59.6301,178.902 59.6412,178.909 59.6522,178.908 59.6632,178.905 59.6743,178.909 59.6853,178.91 59.6963,178.911 59.7074,178.907 59.7184,178.909 59.7294,178.911 59.7405,178.908 59.7515,178.91 59.7625,178.91 59.7736,178.906 59.7846,178.912 59.7956,178.911 59.8067,178.911 59.8177,178.916 59.8287,178.914 59.8398,178.912 59.8508,178.914 59.8618,178.916 59.8729,178.914 59.8839,178.914 59.8949,178.913 59.906,178.913 59.917,178.913 59.928,178.915 59.9391,178.918 59.9501,178.918 59.9611,178.918 59.9722,178.912" stroke-width="0.5" fill="none" stroke-linecap="butt"/>
   <polyline stroke="#0071bc" stroke-linejoin="round" points="64.5624,178.979 64.5735,178.977 64.5845,178.977 64.5955,178.973 64.6066,178.971 64.6176,178.979 64.6286,178.972 64.6397,178.975 64.6507,178.978 64.6617,178.975 64.6728,178.975 64.6838,178.978 64.6948,178.976 64.7059,178.975 64.7169,178.98 64.728,178.981 64.739,178.979 64.75,178.978 64.7611,178.978 64.7721,178.98 64.7831,178.978 64.7942,178.982 64.8052,178.978 64.8162,178.978 64.8273,178.981 64.8383,178.977 64.8493,178.977 64.8604,178.978 64.8714,178.977 64.8824,178.981 64.8935,178.979 64.9045,178.981 64.9155,178.979" stroke-width="0.5" fill="none" stroke-linecap="butt"/>
   <polyline stroke="#0071bc" stroke-linejoin="round" points="58.2067,178.851 58.2177,178.85 58.2288,178.851 58.2398,178.856 58.2508,178.855 58.2619,178.849 58.2729,178.853 58.2839,178.858 58.295,178.854 58.306,178.852 58.317,178.856 58.3281,178.855 58.3391,178.857 58.3501,178.86 58.3612,178.855 58.3722,178.86 58.3832,178.858 58.3943,178.861 58.4053,178.861 58.4164,178.86 58.4274,178.858 58.4384,178.864 58.4494,178.864 58.4605,178.859 58.4715,178.86 58.4826,178.863 58.4936,178.862 58.5046,178.86 58.5157,178.869 58.5267,178.869 58.5377,178.863 58.5488,178.869 58.5598,178.867" stroke-width="0.5" fill="none" stroke-linecap="butt"/>
   <polyline stroke="#0071bc" stroke-linejoin="round" points="63.15,178.97 63.1611,178.963 63.1721,178.967 63.1832,178.966 63.1942,178.967 63.2052,178.964 63.2163,178.965 63.2273,178.964 63.2383,178.971 63.2494,178.967 63.2604,178.971 63.2714,178.968 63.2825,178.964 63.2935,178.968 63.3045,178.963 63.3156,178.965 63.3266,178.964 63.3376,178.964 63.3487,178.969 63.3597,178.966 63.3707,178.965 63.3818,178.97 63.3928,178.967 63.4038,178.967 63.4149,178.964 63.4259,178.965 63.4369,178.964 63.448,178.965 63.459,178.964 63.47,178.971 63.4811,178.972 63.4921,178.967 63.5031,178.968" stroke-width="0.5" fill="none" stroke-linecap="butt"/>
   <polyline stroke="#0071bc" stroke-linejoin="round" points="63.8562,178.973 63.8673,178.971 63.8783,178.972 63.8893,178.971 63.9004,178.971 63.9114,178.97 63.9224,178.975 63.9335,178.97 63.9445,178.973 63.9555,178.97 63.9666,178.97 63.9776,178.972 63.9886,178.975 63.9997,178.971 64.0107,178.972 64.0218,178.972 64.0328,178.973 64.0438,178.977 64.0549,178.974 64.0659,178.973 64.0769,178.975 64.088,178.977 64.099,178.973 64.11,178.973 64.1211,178.973 64.1321,178.97 64.1431,178.974 64.1542,178.978 64.1652,178.974 64.1762,178.971 64.1873,178.975 64.1983,178.976 64.2093,178.972" stroke-width="0.5" fill="none" stroke-linecap="butt"/>
   <polyline stroke="#0071bc" stroke-linejoin="round" points="45.1421,178.933 45.1532,178.939 45.1642,178.935 45.1752,178.937 45.1863,178.937 45.1973,178.933 45.2083,178.934 45.2194,178.938 45.2304,178.936 45.2414,178.933 45.2525,178.935 45.2635,178.937 45.2745,178.935 45.2856,178.935 45.2966,178.934 45.3076,178.934 45.3187,178.939 45.3297,178.937 45.3408,178.934 45.3518,178.934 45.3628,178.936 45.3739,178.935 45.3849,178.935 45.3959,178.932 45.407,178.935 45.418,178.93 45.429,178.931 45.4401,178.933 45.4511,178.935 45.4621,178.932 45.4732,178.932 45.4842,178.936 45.4952,178.933" stroke-width="0.5" fill="none" stroke-linecap="butt"/>
   <polyline stroke="#0071bc" stroke-linejoin="round" points="40.1988,178.953 40.2098,178.951 40.2209,178.956 40.2319,178.951 40.2429,178.952 40.254,178.949 40.265,178.953 40.276,178.954 40.2871,178.955 40.2981,178.951 40.3091,178.952 40.3202,178.952 40.3312,178.952 40.3422,178.951 40.3533,178.95 40.3643,178.953 40.3753,178.953 40.3864,178.951 40.3974,178.949 40.4084,178.954 40.4195,178.955 40.4305,178.952 40.4415,178.949 40.4526,178.952 40.4636,178.953 40.4746,178.956 40.4857,178.955 40.4967,178.95 40.5077,178.951 40.5188,178.951 40.5298,178.949 40.5408,178.951 40.5519,178.956" stroke-width="0.5" fill="none" stroke-linecap="butt"/>
   <polyline stroke="#0071bc" stroke-linejoin="round" points="47.9669,178.908 47.9779,178.909 47.989,178.91 48,178.909 48.011,178.906 48.0221,178.908 48.0331,178.908 48.0442,178.91 48.0552,178.905 48.0662,178.91 48.0773,178.903 48.0883,178.905 48.0993,178.906 48.1104,178.898 48.1214,178.906 48.1324,178.908 48.1435,178.908 48.1545,178.91 48.1655,178.907 48.1766,178.904 48.1876,178.907 48.1986,178.909 48.2097,178.906 48.2207,178.905 48.2317,178.906 48.2428,178.904 48.2538,178.909 48.2648,178.906 48.2759,178.904 48.2869,178.906 48.2979,178.909 48.309,178.902 48.32,178.906" stroke-width="0.5" fill="none" stroke-linecap="butt"/>
   <polyline stroke="#0071bc" stroke-linejoin="round" points="50.0855,178.864 50.0965,178.87 50.1076,178.863 50.1186,178.864 50.1296,178.866 50.1407,178.865 50.1517,178.866 50.1627,178.87 50.1738,178.865 50.1848,178.865 50.1958,178.862 50.2069,178.862 50.2179,178.86 50.2289,178.862 50.24,178.865 50.251,178.863 50.262,178.86 50.2731,178.863 50.2841,178.863 50.2951,178.863 50.3062,178.861 50.3172,178.858 50.3282,178.859 50.3393,178.857 50.3503,178.859 50.3613,178.858 50.3724,178.862 50.3834,178.86 50.3944,178.857 50.4055,178.857 50.4165,178.856 50.4276,178.856 50.4386,178.852" stroke-width="0.5" fill="none" stroke-linecap="butt"/>
   <polyline stroke="#0071bc" stroke-linejoin="round" points="40.905,178.949 40.916,178.948 40.9271,178.951 40.9381,178.946 40.9491,178.946 40.9602,178.952 40.9712,178.947 40.9822,178.953 40.9933,178.95 41.0043,178.952 41.0153,178.954 41.0264,178.95 41.0374,178.95 41.0484,178.943 41.0595,178.95 41.0705,178.953 41.0815,178.952 41.0926,178.947 41.1036,178.948 41.1146,178.954 41.1257,178.951 41.1367,178.95 41.1477,178.954 41.1588,178.951 41.1698,178.952 41.1808,178.952 41.1919,178.945 41.2029,178.947 41.2139,178.949 41.225,178.949 41.236,178.952 41.247,178.948 41.2581,178.949" stroke-width="0.5" fill="none" stroke-linecap="butt"/>
   <polyline stroke="#0071bc" stroke-linejoin="round" points="48.6731,178.899 48.6841,178.896 48.6952,178.901 48.7062,178.897 48.7172,178.902 48.7283,178.896 48.7393,178.899 48.7503,178.894 48.7614,178.894 48.7724,178.897 48.7834,178.898 48.7945,178.895 48.8055,178.893 48.8165,178.894 48.8276,178.895 48.8386,178.892 48.8496,178.896 48.8607,178.893 48.8717,178.894 48.8828,178.895 48.8938,178.892 48.9048,178.893 48.9159,178.893 48.9269,178.891 48.9379,178.898 48.949,178.893 48.96,178.893 48.971,178.894 48.9821,178.891 48.9931,178.891 49.0041,178.894 49.0152,178.89 49.0262,178.894" stroke-width="0.5" fill="none" stroke-linecap="butt"/>
   <polyline stroke="#0071bc" stroke-linejoin="round" points="39.4926,178.956 39.5036,178.952 39.5147,178.956 39.5257,178.952 39.5367,178.954 39.5478,178.953 39.5588,178.955 39.5698,178.956 39.5809,178.957 39.5919,178.955 39.6029,178.954 39.614,178.953 39.625,178.952 39.636,178.952 39.6471,178.947 39.6581,178.952 39.6691,178.947 39.6802,178.952 39.6912,178.955 39.7022,178.952 39.7133,178.954 39.7243,178.95 39.7354,178.954 39.7464,178.953 39.7574,178.953 39.7684,178.957 39.7795,178.95 39.7905,178.952 39.8016,178.954 39.8126,178.959 39.8236,178.953 39.8347,178.955 39.8457,178.952" stroke-width="0.5" fill="none" stroke-linecap="butt"/>
   <polyline stroke="#0071bc" stroke-linejoin="round" points="37.374,178.955 37.3851,178.958 37.3961,178.958 37.4071,178.955 37.4182,178.957 37.4292,178.954 37.4402,178.952 37.4513,178.955 37.4623,178.954 37.4733,178.96 37.4844,178.959 37.4954,178.961 37.5064,178.957 37.5175,178.95 37.5285,178.955 37.5395,178.954 37.5506,178.954 37.5616,178.952 37.5726,178.954 37.5837,178.956 37.5947,178.962 37.6057,178.952 37.6168,178.955 37.6278,178.954 37.6388,178.948 37.6499,178.955 37.6609,178.95 37.6719,178.956 37.683,178.958 37.694,178.945 37.705,178.952 37.7161,178.96 37.7271,178.955" stroke-width="0.5" fill="none" stroke-linecap="butt"/>
   <polyline stroke="#0071bc" stroke-linejoin="round" points="49.3793,178.886 49.3903,178.881 49.4014,178.882 49.4124,178.885 49.4234,178.884 49.4345,178.884 49.4455,178.884 49.4565,178.883 49.4676,178.881 49.4786,178.881 49.4896,178.884 49.5007,178.88 49.5117,178.885 49.5227,178.88 49.5338,178.881 49.5448,178.879 49.5558,178.884 49.5669,178.878 49.5779,178.88 49.5889,178.881 49.6,178.879 49.611,178.883 49.622,178.877 49.6331,178.877 49.6441,178.88 49.6551,178.88 49.6662,178.88 49.6772,178.879 49.6883,178.877 49.6993,178.878 49.7103,178.878 49.7214,178.875 49.7324,178.876" stroke-width="0.5" fill="none" stroke-linecap="butt"/>
   <polyline stroke="#0071bc" stroke-linejoin="round" points="44.436,178.938 44.447,178.94 44.458,178.938 44.469,178.94 44.4801,178.94 44.4911,178.937 44.5022,178.943 44.5132,178.94 44.5242,178.935 44.5353,178.941 44.5463,178.941 44.5573,178.946 44.5684,178.939 44.5794,178.937 44.5904,178.94 44.6015,178.939 44.6125,178.934 44.6235,178.938 44.6346,178.936 44.6456,178.938 44.6566,178.936 44.6677,178.937 44.6787,178.939 44.6897,178.94 44.7008,178.946 44.7118,178.936 44.7228,178.935 44.7339,178.934 44.7449,178.938 44.7559,178.941 44.767,178.936 44.778,178.935 44.789,178.94" stroke-width="0.5" fill="none" stroke-linecap="butt"/>
   <polyline stroke="#0071bc" stroke-linejoin="round" points="43.7298,178.945 43.7408,178.942 43.7518,178.94 43.7628,178.943 43.7739,178.941 43.7849,178.945 43.796,178.942 43.807,178.946 43.818,178.939 43.8291,178.944 43.8401,178.944 43.8511,178.941 43.8622,178.943 43.8732,178.939 43.8842,178.941 43.8953,178.942 43.9063,178.94 43.9173,178.943 43.9284,178.942 43.9394,178.944 43.9504,178.942 43.9615,178.941 43.9725,178.939 43.9835,178.943 43.9946,178.939 44.0056,178.938 44.0166,178.943 44.0277,178.941 44.0387,178.941 44.0497,178.945 44.0608,178.942 44.0718,178.941 44.0828,178.942" stroke-width="0.5" fill="none" stroke-linecap="butt"/>
   <polyline stroke="#0071bc" stroke-linejoin="round" points="43.0236,178.942 43.0346,178.941 43.0456,178.948 43.0567,178.942 43.0677,178.951 43.0787,178.944 43.0898,178.946 43.1008,178.945 43.1118,178.947 43.1229,178.945 43.1339,178.945 43.1449,178.946 43.156,178.943 43.167,178.938 43.178,178.944 43.1891,178.943 43.2001,178.945 43.2111,178.944 43.2222,178.943 43.2332,178.946 43.2442,178.946 43.2553,178.943 43.2663,178.944 43.2773,178.944 43.2884,178.945 43.2994,178.942 43.3104,178.945 43.3215,178.946 43.3325,178.943 43.3436,178.946 43.3546,178.943 43.3656,178.945 43.3767,178.946" stroke-width="0.5" fill="none" stroke-linecap="butt"/>
   <polyline stroke="#0071bc" stroke-linejoin="round" points="45.8483,178.933 45.8594,178.934 45.8704,178.929 45.8814,178.933 45.8925,178.935 45.9035,178.935 45.9145,178.939 45.9256,178.927 45.9366,178.943 45.9476,178.907 45.9587,178.918 45.9697,178.927 45.9807,178.923 45.9918,178.925 46.0028,178.926 46.0138,178.932 46.0249,178.928 46.0359,178.928 46.0469,178.926 46.058,178.93 46.069,178.927 46.0801,178.923 46.0911,178.929 46.1021,178.932 46.1132,178.932 46.1242,178.928 46.1352,178.928 46.1463,178.932 46.1573,178.926 46.1683,178.926 46.1794,178.934 46.1904,178.931 46.2014,178.923" stroke-width="0.5" fill="none" stroke-linecap="butt"/>
   <polyline stroke="#0071bc" stroke-linejoin="round" points="53.6165,178.454 53.6275,178.451 53.6385,178.446 53.6496,178.439 53.6606,178.434 53.6716,178.427 53.6827,178.425 53.6937,178.415 53.7047,178.413 53.7158,178.402 53.7268,178.402 53.7378,178.397 53.7489,178.386 53.7599,178.379 53.7709,178.376 53.782,178.368 53.793,178.361 53.804,178.353 53.8151,178.346 53.8261,178.339 53.8371,178.329 53.8482,178.322 53.8592,178.316 53.8702,178.307 53.8813,178.298 53.8923,178.292 53.9033,178.285 53.9144,178.272 53.9254,178.267 53.9364,178.253 53.9475,178.247 53.9585,178.237 53.9695,178.227" stroke-width="0.5" fill="none" stroke-linecap="butt"/>
   <polyline stroke="#0071bc" stroke-linejoin="round" points="42.3174,178.95 42.3284,178.947 42.3394,178.946 42.3505,178.947 42.3615,178.947 42.3725,178.948 42.3836,178.943 42.3946,178.95 42.4056,178.947 42.4167,178.95 42.4277,178.946 42.4387,178.945 42.4498,178.95 42.4608,178.942 42.4718,178.945 42.4829,178.948 42.4939,178.946 42.505,178.944 42.516,178.945 42.527,178.946 42.5381,178.942 42.5491,178.945 42.5601,178.948 42.5712,178.949 42.5822,178.948 42.5932,178.948 42.6043,178.948 42.6153,178.948 42.6263,178.945 42.6374,178.95 42.6484,178.947 42.6594,178.951 42.6705,178.945" stroke-width="0.5" fill="none" stroke-linecap="butt"/>
   <polyline stroke="#0071bc" stroke-linejoin="round" points="52.9103,178.66 52.9213,178.656 52.9323,178.653 52.9434,178.653 52.9544,178.655 52.9654,178.653 52.9765,178.644 52.9875,178.643 52.9985,178.641 53.0096,178.643 53.0206,178.636 53.0316,178.635 53.0427,178.637 53.0537,178.632 53.0647,178.627 53.0758,178.629 53.0868,178.624 53.0978,178.619 53.1089,178.622 53.1199,178.615 53.1309,178.61 53.142,178.614 53.153,178.607 53.164,178.604 53.1751,178.599 53.1861,178.599 53.1971,178.597 53.2082,178.597 53.2192,178.593 53.2302,178.589 53.2413,178.582 53.2523,178.584 53.2634,178.579" stroke-width="0.5" fill="none" stroke-linecap="butt"/>
   <polyline stroke="#0071bc" stroke-linejoin="round" points="52.2041,178.755 52.2151,178.75 52.2261,178.751 52.2372,178.751 52.2482,178.752 52.2592,178.749 52.2703,178.747 52.2813,178.749 52.2923,178.748 52.3034,178.742 52.3144,178.74 52.3254,178.743 52.3365,178.737 52.3475,178.742 52.3585,178.734 52.3696,178.734 52.3806,178.737 52.3916,178.732 52.4027,178.738 52.4137,178.734 52.4248,178.723 52.4358,178.728 52.4468,178.726 52.4578,178.725 52.4689,178.728 52.4799,178.724 52.491,178.721 52.502,178.717 52.513,178.719 52.5241,178.718 52.5351,178.719 52.5461,178.712 52.5572,178.716" stroke-width="0.5" fill="none" stroke-linecap="butt"/>
   <polyline stroke="#0071bc" stroke-linejoin="round" points="47.2607,178.92 47.2717,178.917 47.2828,178.921 47.2938,178.919 47.3048,178.919 47.3159,178.919 47.3269,178.916 47.338,178.917 47.349,178.918 47.36,178.918 47.3711,178.919 47.3821,178.916 47.3931,178.914 47.4042,178.914 47.4152,178.91 47.4262,178.915 47.4373,178.916 47.4483,178.912 47.4593,178.909 47.4704,178.913 47.4814,178.917 47.4924,178.912 47.5035,178.918 47.5145,178.916 47.5255,178.91 47.5366,178.912 47.5476,178.916 47.5586,178.914 47.5697,178.915 47.5807,178.912 47.5917,178.914 47.6028,178.912 47.6138,178.913" stroke-width="0.5" fill="none" stroke-linecap="butt"/>
   <polyline stroke="#0071bc" stroke-linejoin="round" points="41.6112,178.949 41.6222,178.946 41.6332,178.952 41.6443,178.951 41.6553,178.951 41.6663,178.95 41.6774,178.948 41.6884,178.947 41.6994,178.948 41.7105,178.944 41.7215,178.948 41.7326,178.948 41.7436,178.953 41.7546,178.952 41.7656,178.947 41.7767,178.949 41.7877,178.949 41.7988,178.949 41.8098,178.948 41.8208,178.953 41.8319,178.947 41.8429,178.95 41.8539,178.949 41.865,178.948 41.876,178.947 41.887,178.951 41.8981,178.95 41.9091,178.947 41.9201,178.948 41.9312,178.95 41.9422,178.954 41.9532,178.947 41.9643,178.943" stroke-width="0.5" fill="none" stroke-linecap="butt"/>
   <polyline stroke="#0071bc" stroke-linejoin="round" points="62.0908,178.952 62.1018,178.957 62.1128,178.951 62.1239,178.951 62.1349,178.958 62.1459,178.956 62.157,178.956 62.168,178.954 62.179,178.952 62.1901,178.951 62.2011,178.958 62.2121,178.95 62.2232,178.955 62.2342,178.955 62.2452,178.954 62.2563,178.957 62.2673,178.952 62.2783,178.958 62.2894,178.958 62.3004,178.952 62.3114,178.958 62.3225,178.959 62.3335,178.957 62.3446,178.955 62.3556,178.956 62.3666,178.958 62.3777,178.954 62.3887,178.956 62.3997,178.954 62.4108,178.96 62.4218,178.959 62.4328,178.956 62.4439,178.956" stroke-width="0.5" fill="none" stroke-linecap="butt"/>
   <polyline stroke="#0071bc" stroke-linejoin="round" points="38.0802,178.953 38.0912,178.951 38.1023,178.956 38.1133,178.953 38.1243,178.96 38.1354,178.957 38.1464,178.958 38.1574,178.953 38.1685,178.955 38.1795,178.948 38.1906,178.953 38.2016,178.959 38.2126,178.955 38.2237,178.955 38.2347,178.965 38.2457,178.952 38.2568,178.952 38.2678,178.955 38.2788,178.95 38.2899,178.954 38.3009,178.957 38.3119,178.956 38.323,178.959 38.334,178.952 38.345,178.953 38.3561,178.958 38.3671,178.964 38.3781,178.952 38.3892,178.955 38.4002,178.958 38.4112,178.951 38.4223,178.959 38.4333,178.954" stroke-width="0.5" fill="none" stroke-linecap="butt"/>
   <polyline stroke="#0071bc" stroke-linejoin="round" points="57.1474,178.76 57.1584,178.766 57.1695,178.763 57.1805,178.759 57.1916,178.764 57.2026,178.765 57.2136,178.771 57.2247,178.766 57.2357,178.77 57.2467,178.768 57.2578,178.769 57.2688,178.775 57.2798,178.772 57.2909,178.771 57.3019,178.776 57.3129,178.775 57.324,178.779 57.335,178.778 57.346,178.773 57.3571,178.782 57.3681,178.784 57.3791,178.781 57.3902,178.786 57.4012,178.788 57.4122,178.785 57.4233,178.792 57.4343,178.788 57.4453,178.792 57.4564,178.791 57.4674,178.799 57.4784,178.798 57.4895,178.795 57.5005,178.797" stroke-width="0.5" fill="none" stroke-linecap="butt"/>
   <polyline stroke="#0071bc" stroke-linejoin="round" points="56.4412,178.636 56.4522,178.636 56.4633,178.64 56.4743,178.636 56.4854,178.644 56.4964,178.652 56.5074,178.649 56.5185,178.655 56.5295,178.655 56.5405,178.657 56.5516,178.66 56.5626,178.659 56.5736,178.662 56.5847,178.664 56.5957,178.671 56.6067,178.675 56.6178,178.671 56.6288,178.675 56.6398,178.681 56.6509,178.675 56.6619,178.681 56.6729,178.682 56.684,178.691 56.695,178.693 56.706,178.69 56.7171,178.693 56.7281,178.695 56.7391,178.699 56.7502,178.705 56.7612,178.704 56.7722,178.701 56.7833,178.704 56.7943,178.708" stroke-width="0.5" fill="none" stroke-linecap="butt"/>
   <polyline stroke="#0071bc" stroke-linejoin="round" points="38.7864,178.953 38.7974,178.961 38.8085,178.952 38.8195,178.95 38.8305,178.946 38.8416,178.951 38.8526,178.953 38.8636,178.956 38.8747,178.952 38.8857,178.959 38.8968,178.957 38.9078,178.954 38.9188,178.953 38.9299,178.949 38.9409,178.958 38.9519,178.953 38.963,178.954 38.974,178.956 38.985,178.96 38.9961,178.958 39.0071,178.955 39.0181,178.957 39.0292,178.953 39.0402,178.958 39.0512,178.957 39.0623,178.953 39.0733,178.956 39.0843,178.954 39.0954,178.954 39.1064,178.954 39.1174,178.951 39.1285,178.957 39.1395,178.959" stroke-width="0.5" fill="none" stroke-linecap="butt"/>
   <polyline stroke="#0071bc" stroke-linejoin="round" points="54.3226,177.672 54.3337,177.639 54.3447,177.611 54.3557,177.577 54.3668,177.54 54.3778,177.507 54.3888,177.467 54.3999,177.429 54.4109,177.387 54.422,177.342 54.433,177.294 54.444,177.247 54.455,177.192 54.4661,177.141 54.4771,177.079 54.4882,177.016 54.4992,176.944 54.5102,176.869 54.5213,176.8 54.5323,176.713 54.5433,176.621 54.5544,176.528 54.5654,176.421 54.5764,176.302 54.5875,176.177 54.5985,176.044 54.6095,175.886 54.6206,175.718 54.6316,175.53 54.6426,175.313 54.6537,175.078 54.6647,174.808 54.6757,174.497" stroke-width="0.5" fill="none" stroke-linecap="butt"/>
   <polyline stroke="#0071bc" stroke-linejoin="round" points="57.8536,178.829 57.8646,178.826 57.8757,178.83 57.8867,178.826 57.8977,178.833 57.9088,178.83 57.9198,178.832 57.9308,178.834 57.9419,178.833 57.9529,178.835 57.9639,178.831 57.975,178.834 57.986,178.842 57.997,178.835 58.0081,178.837 58.0191,178.84 58.0302,178.839 58.0412,178.838 58.0522,178.839 58.0633,178.84 58.0743,178.841 58.0853,178.84 58.0964,178.846 58.1074,178.846 58.1184,178.847 58.1295,178.843 58.1405,178.845 58.1515,178.843 58.1626,178.851 58.1736,178.845 58.1846,178.849 58.1957,178.846 58.2067,178.851" stroke-width="0.5" fill="none" stroke-linecap="butt"/>
   <polyline stroke="#0071bc" stroke-linejoin="round" points="46.5545,178.923 46.5656,178.924 46.5766,178.919 46.5876,178.923 46.5987,178.923 46.6097,178.926 46.6207,178.921 46.6318,178.923 46.6428,178.922 46.6538,178.926 46.6649,178.923 46.6759,178.922 46.6869,178.922 46.698,178.926 46.709,178.924 46.72,178.925 46.7311,178.921 46.7421,178.926 46.7531,178.924 46.7642,178.926 46.7752,178.925 46.7862,178.928 46.7973,178.926 46.8083,178.913 46.8193,178.923 46.8304,178.916 46.8414,178.919 46.8524,178.917 46.8635,178.922 46.8745,178.92 46.8856,178.921 46.8966,178.92 46.9076,178.923" stroke-width="0.5" fill="none" stroke-linecap="butt"/>
   <polyline stroke="#0071bc" stroke-linejoin="round" points="61.3846,178.943 61.3956,178.943 61.4066,178.943 61.4177,178.946 61.4287,178.945 61.4397,178.945 61.4508,178.945 61.4618,178.945 61.4728,178.942 61.4839,178.946 61.4949,178.943 61.5059,178.945 61.517,178.942 61.528,178.945 61.539,178.952 61.5501,178.945 61.5611,178.944 61.5722,178.949 61.5832,178.943 61.5942,178.941 61.6053,178.95 61.6163,178.949 61.6273,178.949 61.6384,178.943 61.6494,178.944 61.6604,178.947 61.6715,178.945 61.6825,178.949 61.6935,178.951 61.7046,178.948 61.7156,178.95 61.7266,178.946 61.7377,178.951" stroke-width="0.5" fill="none" stroke-linecap="butt"/>
   <polyline stroke="#0071bc" stroke-linejoin="round" points="60.6784,178.933 60.6894,178.933 60.7004,178.932 60.7115,178.935 60.7225,178.933 60.7335,178.932 60.7446,178.933 60.7556,178.932 60.7666,178.936 60.7777,178.935 60.7887,178.931 60.7998,178.934 60.8108,178.933 60.8218,178.935 60.8329,178.933 60.8439,178.94 60.8549,178.936 60.866,178.934 60.877,178.94 60.888,178.934 60.8991,178.936 60.9101,178.937 60.9211,178.936 60.9322,178.935 60.9432,178.934 60.9542,178.94 60.9653,178.937 60.9763,178.936 60.9873,178.94 60.9984,178.935 61.0094,178.939 61.0204,178.936 61.0315,178.937" stroke-width="0.5" fill="none" stroke-linecap="butt"/>
   <polyline stroke="#0071bc" stroke-linejoin="round" points="51.4979,178.813 51.5089,178.808 51.5199,178.812 51.531,178.803 51.542,178.804 51.553,178.806 51.5641,178.802 51.5751,178.802 51.5861,178.804 51.5972,178.802 51.6082,178.799 51.6192,178.798 51.6303,178.801 51.6413,178.797 51.6524,178.798 51.6634,178.797 51.6744,178.797 51.6855,178.798 51.6965,178.797 51.7075,178.795 51.7186,178.797 51.7296,178.794 51.7406,178.793 51.7517,178.794 51.7627,178.788 51.7737,178.79 51.7848,178.79 51.7958,178.787 51.8068,178.787 51.8179,178.789 51.8289,178.787 51.8399,178.778 51.851,178.786" stroke-width="0.5" fill="none" stroke-linecap="butt"/>
   <polyline stroke="#0071bc" stroke-linejoin="round" points="62.797,178.958 62.808,178.96 62.819,178.959 62.8301,178.96 62.8411,178.959 62.8521,178.958 62.8632,178.977 62.8742,178.966 62.8852,178.966 62.8963,178.964 62.9073,178.963 62.9183,178.96 62.9294,178.964 62.9404,178.962 62.9514,178.963 62.9625,178.965 62.9735,178.964 62.9845,178.964 62.9956,178.967 63.0066,178.961 63.0176,178.964 63.0287,178.965 63.0397,178.964 63.0507,178.964 63.0618,178.968 63.0728,178.963 63.0838,178.965 63.0949,178.96 63.1059,178.966 63.117,178.964 63.128,178.968 63.139,178.965 63.15,178.97" stroke-width="0.5" fill="none" stroke-linecap="butt"/>
   <polyline stroke="#0071bc" stroke-linejoin="round" points="50.7917,178.846 50.8027,178.844 50.8137,178.841 50.8248,178.84 50.8358,178.84 50.8468,178.839 50.8579,178.839 50.8689,178.841 50.88,178.84 50.891,178.834 50.902,178.84 50.9131,178.834 50.9241,178.839 50.9351,178.834 50.9462,178.838 50.9572,178.833 50.9682,178.837 50.9793,178.835 50.9903,178.834 51.0013,178.83 51.0124,178.836 51.0234,178.83 51.0344,178.831 51.0455,178.832 51.0565,178.83 51.0675,178.831 51.0786,178.827 51.0896,178.827 51.1006,178.829 51.1117,178.829 51.1227,178.826 51.1337,178.827 51.1448,178.83" stroke-width="0.5" fill="none" stroke-linecap="butt"/>
   <polyline stroke="#0071bc" stroke-linejoin="round" points="64.9155,178.979 64.9266,178.98 64.9376,178.979 64.9486,178.981 64.9597,178.979 64.9707,178.98 64.9817,178.979 64.9928,178.98 65.0038,178.98 65.0148,178.98 65.0259,178.978 65.0369,178.979 65.0479,178.982 65.059,178.983 65.07,178.98 65.081,178.98 65.0921,178.979 65.1031,178.978 65.1142,178.976 65.1252,178.976 65.1362,178.977 65.1472,178.984 65.1583,178.979 65.1693,178.979 65.1804,178.977 65.1914,178.981 65.2024,178.981 65.2135,178.978 65.2245,178.978 65.2355,178.979 65.2466,178.979 65.2576,178.984 65.2686,178.984" stroke-width="0.5" fill="none" stroke-linecap="butt"/>
   <polyline stroke="#0071bc" stroke-linejoin="round" points="59.9722,178.912 59.9832,178.92 59.9942,178.92 60.0053,178.918 60.0163,178.921 60.0274,178.915 60.0384,178.917 60.0494,178.92 60.0605,178.919 60.0715,178.917 60.0825,178.918 60.0936,178.923 60.1046,178.923 60.1156,178.922 60.1267,178.921 60.1377,178.923 60.1487,178.921 60.1598,178.922 60.1708,178.92 60.1818,178.92 60.1929,178.922 60.2039,178.923 60.2149,178.926 60.226,178.924 60.237,178.924 60.248,178.922 60.2591,178.922 60.2701,178.921 60.2811,178.923 60.2922,178.928 60.3032,178.922 60.3142,178.931 60.3253,178.924" stroke-width="0.5" fill="none" stroke-linecap="butt"/>
   <polyline stroke="#0071bc" stroke-linejoin="round" points="58.5598,178.867 58.5708,178.87 58.5819,178.87 58.5929,178.869 58.6039,178.868 58.615,178.873 58.626,178.87 58.637,178.875 58.6481,178.87 58.6591,178.873 58.6701,178.875 58.6812,178.877 58.6922,178.872 58.7032,178.875 58.7143,178.874 58.7253,178.875 58.7363,178.875 58.7474,178.878 58.7584,178.875 58.7694,178.876 58.7805,178.88 58.7915,178.881 58.8026,178.877 58.8136,178.877 58.8246,178.878 58.8357,178.883 58.8467,178.879 58.8577,178.884 58.8688,178.877 58.8798,178.879 58.8908,178.878 58.9019,178.886 58.9129,178.884" stroke-width="0.5" fill="none" stroke-linecap="butt"/>
   <polyline stroke="#0071bc" stroke-linejoin="round" points="55.0288,175.771 55.0399,175.936 55.0509,176.089 55.0619,176.222 55.073,176.349 55.084,176.462 55.095,176.57 55.1061,176.663 55.1171,176.757 55.1281,176.842 55.1392,176.918 55.1502,176.986 55.1612,177.06 55.1723,177.118 55.1833,177.179 55.1943,177.236 55.2054,177.286 55.2164,177.332 55.2275,177.383 55.2385,177.425 55.2495,177.469 55.2606,177.51 55.2716,177.548 55.2826,177.585 55.2937,177.619 55.3047,177.65 55.3157,177.684 55.3268,177.712 55.3378,177.745 55.3488,177.77 55.3599,177.797 55.3709,177.82 55.3819,177.847" stroke-width="0.5" fill="none" stroke-linecap="butt"/>
   <polyline stroke="#0071bc" stroke-linejoin="round" points="64.2093,178.972 64.2204,178.973 64.2314,178.977 64.2424,178.973 64.2535,178.975 64.2645,178.972 64.2755,178.972 64.2866,178.975 64.2976,178.973 64.3086,178.976 64.3197,178.977 64.3307,178.975 64.3417,178.974 64.3528,178.977 64.3638,178.973 64.3748,178.973 64.3859,178.977 64.3969,178.978 64.408,178.975 64.419,178.975 64.43,178.977 64.4411,178.978 64.4521,178.951 64.4631,178.967 64.4742,178.974 64.4852,178.977 64.4962,178.974 64.5073,178.971 64.5183,178.975 64.5293,178.975 64.5404,178.977 64.5514,178.975 64.5624,178.979" stroke-width="0.5" fill="none" stroke-linecap="butt"/>
   <polyline stroke="#0071bc" stroke-linejoin="round" points="59.266,178.896 59.277,178.894 59.2881,178.895 59.2991,178.9 59.3101,178.896 59.3212,178.898 59.3322,178.895 59.3432,178.898 59.3543,178.898 59.3653,178.896 59.3763,178.898 59.3874,178.9 59.3984,178.902 59.4094,178.899 59.4205,178.9 59.4315,178.901 59.4425,178.905 59.4536,178.904 59.4646,178.903 59.4756,178.904 59.4867,178.904 59.4977,178.903 59.5087,178.905 59.5198,178.906 59.5308,178.903 59.5418,178.906 59.5529,178.905 59.5639,178.907 59.575,178.904 59.586,178.909 59.597,178.906 59.608,178.907 59.6191,178.904" stroke-width="0.5" fill="none" stroke-linecap="butt"/>
   <polyline stroke="#0071bc" stroke-linejoin="round" points="55.735,178.312 55.7461,178.322 55.7571,178.327 55.7681,178.337 55.7792,178.346 55.7902,178.355 55.8012,178.362 55.8123,178.371 55.8233,178.377 55.8343,178.386 55.8454,178.387 55.8564,178.404 55.8674,178.398 55.8785,178.416 55.8895,178.414 55.9005,178.424 55.9116,178.434 55.9226,178.437 55.9336,178.443 55.9447,178.451 55.9557,178.454 55.9667,178.459 55.9778,178.468 55.9888,178.468 55.9998,178.479 56.0109,178.481 56.0219,178.489 56.033,178.49 56.044,178.495 56.055,178.505 56.0661,178.512 56.0771,178.508 56.0881,178.52" stroke-width="0.5" fill="none" stroke-linecap="butt"/>
   <polyline stroke="#0071bc" stroke-linejoin="round" points="63.5031,178.968 63.5142,178.965 63.5252,178.967 63.5362,178.969 63.5473,178.966 63.5583,178.968 63.5694,178.964 63.5804,178.969 63.5914,178.969 63.6024,178.968 63.6135,178.966 63.6245,178.966 63.6356,178.975 63.6466,178.969 63.6576,178.971 63.6687,178.969 63.6797,178.969 63.6907,178.97 63.7018,178.97 63.7128,178.964 63.7238,178.964 63.7349,178.971 63.7459,178.969 63.7569,178.968 63.768,178.971 63.779,178.965 63.79,178.98 63.8011,178.969 63.8121,178.966 63.8231,178.972 63.8342,178.967 63.8452,178.972 63.8562,178.973" stroke-width="0.5" fill="none" stroke-linecap="butt"/>
  </g>
 </g>
</svg>
